<?xml version="1.0" encoding="UTF-8"?>
<svg width="361px" height="221px" viewBox="0 0 361 221" version="1.1" xmlns="http://www.w3.org/2000/svg" xmlns:xlink="http://www.w3.org/1999/xlink">
    <!-- Generator: Sketch 48.1 (47250) - http://www.bohemiancoding.com/sketch -->
    <title>Group</title>
    <desc>Created with Sketch.</desc>
    <defs></defs>
    <g id="All-White" stroke="none" stroke-width="1" fill="none" fill-rule="evenodd" transform="translate(-11.000000, -9.000000)">
        <g id="Group" transform="translate(11.000000, 9.000000)">
            <g id="logo" fill="#FFFFFF" fill-rule="nonzero">
                <path d="M13.642,128.038 L10.356,124.678 L48.327,87.55 L48.327,80.685 L63.801,65.216 L63.801,43.549 L69.901,34.529 L69.901,1.723 C70.303713,1.28984235 70.630188,1.01894549 70.8804251,0.91030942 C71.2557808,0.747355314 71.5622977,0.625732372 72.2433669,0.600656532 C72.924436,0.575580691 73.274728,0.717570591 73.6364942,0.86487068 C73.8776716,0.963070739 74.1988402,1.24911385 74.6,1.723 L74.6,35.968 L68.5,44.987 L68.5,67.162 L53.026,82.633 L53.026,89.525 L13.642,128.038 Z" id="Shape"></path>
                <polygon id="Shape" points="61.192 122.405 56.492 122.405 56.492 84.313 71.274 68.992 80.555 68.992 99.891 46.642 118.154 46.642 118.154 51.341 102.038 51.341 82.703 73.692 72.191 73.692 61.192 85.091"></polygon>
                <polygon id="Shape" points="89.497 153.887 79.277 144.583 79.277 121.431 65.09 109.401 65.09 84.354 72.11 77.163 90.103 77.163 95.432 71.833 98.756 75.156 92.051 81.86 73.945 81.86 69.788 86.188 69.788 107.226 83.979 119.251 83.979 142.511 84.749 143.212 92.658 150.414"></polygon>
                <path d="M32.939,86.384 L29.727,82.955 L56.057,58.296 L56.057,9.7 C56.4290403,9.40724922 56.7041162,9.21833842 56.8822279,9.13326762 C57.4700649,8.8525013 58.0010126,8.80903778 58.4144439,8.80903778 C58.7676497,8.80903778 59.2383999,8.86744524 59.7152457,9.07236961 C59.9385686,9.16834257 60.2854867,9.3775527 60.756,9.7 L60.756,60.334 L32.939,86.384 Z" id="Shape"></path>
                <path d="M58.843,120.739 C54.71,120.739 51.352,124.096 51.352,128.237 C51.352,132.375 54.709,135.727 58.843,135.727 C62.986,135.727 66.337,132.373 66.337,128.237 C66.337,124.097 62.986,120.739 58.843,120.739 Z" id="Shape"></path>
                <path d="M36.714,128.526 C32.569,128.526 29.216,131.893 29.216,136.026 C29.216,140.167 32.569,143.518 36.714,143.518 C40.85,143.518 44.203,140.165 44.203,136.026 C44.204,131.894 40.85,128.526 36.714,128.526 Z" id="Shape"></path>
                <circle id="Oval" cx="36.714" cy="136.029" r="3.749"></circle>
                <path d="M58.843,150.776 C54.71,150.776 51.352,154.126 51.352,158.264 C51.352,162.402 54.709,165.764 58.843,165.764 C62.986,165.764 66.337,162.403 66.337,158.264 C66.337,154.13 62.986,150.776 58.843,150.776 Z" id="Shape"></path>
                <path d="M8.25,122.456 C4.102,122.456 0.752,125.808 0.752,129.944 C0.752,134.084 4.103,137.442 8.25,137.442 C12.39,137.442 15.737,134.084 15.737,129.944 C15.736,125.808 12.391,122.456 8.25,122.456 Z" id="Shape"></path>
                <path d="M8.25,126.192 C6.176,126.192 4.5,127.875 4.5,129.947 C4.5,132.02 6.176,133.697 8.25,133.697 C10.309,133.697 11.994,132.02 11.994,129.947 C11.995,127.875 10.31,126.192 8.25,126.192 Z" id="Shape"></path>
                <path d="M102.789,63.259 C98.655,63.259 95.302,66.613 95.302,70.757 C95.302,74.894 98.651,78.246 102.789,78.246 C106.938,78.246 110.287,74.892 110.287,70.757 C110.286,66.611 106.937,63.259 102.789,63.259 Z" id="Shape"></path>
                <path d="M102.789,67.007 C100.718,67.007 99.045,68.687 99.045,70.757 C99.045,72.816 100.718,74.504 102.789,74.504 C104.863,74.504 106.542,72.816 106.542,70.757 C106.538,68.687 104.86,67.007 102.789,67.007 Z" id="Shape"></path>
                <path d="M124.065,41.506 C119.924,41.506 116.571,44.858 116.571,48.993 C116.571,53.141 119.924,56.494 124.065,56.494 C128.212,56.494 131.561,53.14 131.561,48.993 C131.562,44.855 128.212,41.506 124.065,41.506 Z" id="Shape"></path>
                <path d="M124.065,45.247 C121.992,45.247 120.315,46.921 120.315,48.991 C120.315,51.069 121.991,52.738 124.065,52.738 C126.134,52.738 127.811,51.069 127.811,48.991 C127.811,46.921 126.134,45.247 124.065,45.247 Z" id="Shape"></path>
                <path d="M80.312,85.698 C76.166,85.698 72.815,89.061 72.815,93.191 C72.815,97.331 76.166,100.69 80.312,100.69 C84.449,100.69 87.8,97.331 87.8,93.191 C87.799,89.062 84.453,85.698 80.312,85.698 Z" id="Shape"></path>
                <path d="M100.908,95.541 L87.799,95.541 L87.799,90.844 L98.87,90.844 L148.138,38.208 C149.366466,38.0362791 150.278489,38.2290264 150.874067,38.7862419 C151.469645,39.3434574 151.70129,40.2207101 151.569,41.418 L100.908,95.541 Z" id="Shape"></path>
                <path d="M27.577,81.635 C23.433,81.635 20.077,84.989 20.077,89.126 C20.077,93.26 23.434,96.622 27.577,96.622 C31.714,96.622 35.068,93.26 35.068,89.126 C35.068,84.989 31.715,81.635 27.577,81.635 Z" id="Shape"></path>
                <path d="M94.703,148.841 C90.564,148.841 87.211,152.196 87.211,156.343 C87.211,160.47 90.564,163.83 94.703,163.83 C98.847,163.83 102.197,160.47 102.197,156.343 C102.199,152.196 98.85,148.841 94.703,148.841 Z" id="Shape"></path>
                <path d="M158.65,47.117 C154.517,47.117 151.16,50.467 151.16,54.605 C151.16,58.743 154.517,62.103 158.65,62.103 C162.793,62.103 166.144,58.744 166.144,54.605 C166.144,50.471 162.792,47.117 158.65,47.117 Z" id="Shape"></path>
                <path d="M144.394,61.374 C140.261,61.374 136.903,64.723 136.903,68.861 C136.903,73 140.26,76.359 144.394,76.359 C148.537,76.359 151.888,73 151.888,68.861 C151.888,64.727 148.537,61.374 144.394,61.374 Z" id="Shape"></path>
                <path d="M332.243,181.877 L335.791,181.231 L335.879,177.436 L332.366,176.627 L331.209,173.635 L333.263,170.675 L330.646,167.929 L327.587,169.841 L324.653,168.541 L324.007,164.996 L320.214,164.909 L319.402,168.419 L316.411,169.577 L313.449,167.524 L310.704,170.144 L312.614,173.2 L311.317,176.135 L307.772,176.78 L307.682,180.572 L311.193,181.383 L312.352,184.376 L310.3,187.335 L312.921,190.081 L315.976,188.172 L318.909,189.469 L319.555,193.017 L323.347,193.104 L324.158,189.589 L327.148,188.436 L330.111,190.487 L332.856,187.867 L330.948,184.809 L332.243,181.877 Z M319.441,184.289 C316.54,183.04 315.198,179.676 316.445,176.777 C317.693,173.875 321.055,172.536 323.959,173.784 C326.856,175.031 328.197,178.394 326.95,181.295 C325.705,184.194 322.34,185.535 319.441,184.289 Z" id="hackumass-logo-bottom-gear"></path>
                <path d="M356.249,157.925 L360.103,155.581 L358.505,151.107 L354.035,151.735 L351.347,148.762 L352.415,144.377 L348.123,142.346 L345.407,145.948 L341.401,145.748 L339.056,141.895 L334.586,143.494 L335.21,147.96 L332.237,150.651 L327.854,149.582 L325.822,153.874 L329.426,156.59 L329.227,160.597 L325.375,162.938 L326.969,167.412 L331.436,166.786 L334.127,169.764 L333.057,174.139 L337.35,176.173 L340.065,172.572 L344.073,172.772 L346.417,176.624 L350.891,175.026 L350.26,170.559 L353.236,167.871 L357.621,168.937 L359.653,164.645 L356.049,161.927 L356.249,157.925 Z M342.425,165.237 C339.164,165.106 336.629,162.359 336.752,159.101 C336.881,155.841 339.632,153.304 342.894,153.431 C346.149,153.561 348.692,156.308 348.555,159.571 C348.428,162.826 345.684,165.364 342.425,165.237 Z" id="hackumass-logo-middle-gear"></path>
                <path d="M355.374,126.281 L349.362,123.192 L349.331,118.013 L355.3,114.843 L353.484,109.378 L346.806,110.41 L343.736,106.241 L346.701,100.167 L342.017,96.813 L337.218,101.574 L332.284,100.005 L331.116,93.35 C330.040492,93.3572745 329.041323,93.3640327 328.118492,93.3702745 C327.195661,93.3765163 326.272831,93.3827582 325.35,93.389 L324.27,100.059 L319.356,101.692 L314.499,96.994 L309.86,100.411 L312.903,106.442 L309.887,110.65 L303.198,109.709 L301.454,115.198 L307.462,118.29 L307.493,123.466 L301.528,126.636 L303.342,132.103 L310.022,131.07 L313.092,135.24 L310.123,141.31 L314.807,144.667 L319.606,139.909 L324.542,141.473 L325.712,148.129 L331.472,148.091 L332.554,141.418 L337.468,139.789 L342.329,144.484 L346.964,141.07 L343.919,135.033 L346.937,130.826 L353.628,131.768 L355.374,126.281 Z M328.414,127.517 C324.666,127.517 321.633,124.484 321.633,120.74 C321.633,116.996 324.666,113.959 328.414,113.959 C332.158,113.959 335.191,116.996 335.191,120.74 C335.191,124.483 332.158,127.517 328.414,127.517 Z" id="hackumass-logo-top-gear"></path>
            </g>
            <text id="HACK" font-family="Dosis-Medium, Dosis" font-size="90" font-weight="400" letter-spacing="0.372239202" fill="#FFFFFF">
                <tspan x="108" y="151">HACK</tspan>
            </text>
            <text id="UMASS" font-family="Dosis-Regular, Dosis" font-size="79" font-weight="normal" letter-spacing="0.326743305" fill="#FFFFFF">
                <tspan x="73" y="220">UMASS</tspan>
            </text>
            <path d="" id="Path" stroke="#979797"></path>
            <polygon id="Path-2" fill="#FFFFFF" points="78.745512 165.277764 78.9484244 121.544337 83.9967293 121.544337 83.9967293 165.277764"></polygon>
        </g>
    </g>
</svg>