<svg viewBox="0 0 720 441" version="1.1" xmlns="http://www.w3.org/2000/svg" xmlns:xlink="http://www.w3.org/1999/xlink" id="el_5fjbDKva0"><style>@-webkit-keyframes kf_el_8P9qDVL1hYi_an_Dr5-OEMPy{0%{-webkit-transform: translate(655.8280029296875px, 240.47899627685547px) rotate(0deg) translate(-655.8280029296875px, -240.47899627685547px);transform: translate(655.8280029296875px, 240.47899627685547px) rotate(0deg) translate(-655.8280029296875px, -240.47899627685547px);}100%{-webkit-transform: translate(655.8280029296875px, 240.47899627685547px) rotate(360deg) translate(-655.8280029296875px, -240.47899627685547px);transform: translate(655.8280029296875px, 240.47899627685547px) rotate(360deg) translate(-655.8280029296875px, -240.47899627685547px);}}@keyframes kf_el_8P9qDVL1hYi_an_Dr5-OEMPy{0%{-webkit-transform: translate(655.8280029296875px, 240.47899627685547px) rotate(0deg) translate(-655.8280029296875px, -240.47899627685547px);transform: translate(655.8280029296875px, 240.47899627685547px) rotate(0deg) translate(-655.8280029296875px, -240.47899627685547px);}100%{-webkit-transform: translate(655.8280029296875px, 240.47899627685547px) rotate(360deg) translate(-655.8280029296875px, -240.47899627685547px);transform: translate(655.8280029296875px, 240.47899627685547px) rotate(360deg) translate(-655.8280029296875px, -240.47899627685547px);}}@-webkit-keyframes kf_el_fHDzv9flC1H_an_80qqgaPbB{0%{-webkit-transform: translate(684.4779968261719px, 317.5189971923828px) translate(-684.4779968261719px, -317.5189971923828px) translate(-1px, 3px);transform: translate(684.4779968261719px, 317.5189971923828px) translate(-684.4779968261719px, -317.5189971923828px) translate(-1px, 3px);}100%{-webkit-transform: translate(684.4779968261719px, 317.5189971923828px) translate(-684.4779968261719px, -317.5189971923828px) translate(-1px, 3px);transform: translate(684.4779968261719px, 317.5189971923828px) translate(-684.4779968261719px, -317.5189971923828px) translate(-1px, 3px);}}@keyframes kf_el_fHDzv9flC1H_an_80qqgaPbB{0%{-webkit-transform: translate(684.4779968261719px, 317.5189971923828px) translate(-684.4779968261719px, -317.5189971923828px) translate(-1px, 3px);transform: translate(684.4779968261719px, 317.5189971923828px) translate(-684.4779968261719px, -317.5189971923828px) translate(-1px, 3px);}100%{-webkit-transform: translate(684.4779968261719px, 317.5189971923828px) translate(-684.4779968261719px, -317.5189971923828px) translate(-1px, 3px);transform: translate(684.4779968261719px, 317.5189971923828px) translate(-684.4779968261719px, -317.5189971923828px) translate(-1px, 3px);}}@-webkit-keyframes kf_el_fHDzv9flC1H_an_KVMoQBdFc{0%{-webkit-transform: translate(684.4779968261719px, 317.5189971923828px) rotate(360deg) translate(-684.4779968261719px, -317.5189971923828px);transform: translate(684.4779968261719px, 317.5189971923828px) rotate(360deg) translate(-684.4779968261719px, -317.5189971923828px);}100%{-webkit-transform: translate(684.4779968261719px, 317.5189971923828px) rotate(-90deg) translate(-684.4779968261719px, -317.5189971923828px);transform: translate(684.4779968261719px, 317.5189971923828px) rotate(-90deg) translate(-684.4779968261719px, -317.5189971923828px);}}@keyframes kf_el_fHDzv9flC1H_an_KVMoQBdFc{0%{-webkit-transform: translate(684.4779968261719px, 317.5189971923828px) rotate(360deg) translate(-684.4779968261719px, -317.5189971923828px);transform: translate(684.4779968261719px, 317.5189971923828px) rotate(360deg) translate(-684.4779968261719px, -317.5189971923828px);}100%{-webkit-transform: translate(684.4779968261719px, 317.5189971923828px) rotate(-90deg) translate(-684.4779968261719px, -317.5189971923828px);transform: translate(684.4779968261719px, 317.5189971923828px) rotate(-90deg) translate(-684.4779968261719px, -317.5189971923828px);}}@-webkit-keyframes kf_el_vXayT5dVdUI_an_4S1FfXjtu{0%{-webkit-transform: translate(642.5610046386719px, 357.01300048828125px) rotate(0deg) translate(-642.5610046386719px, -357.01300048828125px);transform: translate(642.5610046386719px, 357.01300048828125px) rotate(0deg) translate(-642.5610046386719px, -357.01300048828125px);}100%{-webkit-transform: translate(642.5610046386719px, 357.01300048828125px) rotate(450deg) translate(-642.5610046386719px, -357.01300048828125px);transform: translate(642.5610046386719px, 357.01300048828125px) rotate(450deg) translate(-642.5610046386719px, -357.01300048828125px);}}@keyframes kf_el_vXayT5dVdUI_an_4S1FfXjtu{0%{-webkit-transform: translate(642.5610046386719px, 357.01300048828125px) rotate(0deg) translate(-642.5610046386719px, -357.01300048828125px);transform: translate(642.5610046386719px, 357.01300048828125px) rotate(0deg) translate(-642.5610046386719px, -357.01300048828125px);}100%{-webkit-transform: translate(642.5610046386719px, 357.01300048828125px) rotate(450deg) translate(-642.5610046386719px, -357.01300048828125px);transform: translate(642.5610046386719px, 357.01300048828125px) rotate(450deg) translate(-642.5610046386719px, -357.01300048828125px);}}@-webkit-keyframes kf_el_vXayT5dVdUI_an_eof_h7TRO{0%{-webkit-transform: translate(642.5610046386719px, 357.01300048828125px) translate(-642.5610046386719px, -357.01300048828125px) translate(-3px, 4px);transform: translate(642.5610046386719px, 357.01300048828125px) translate(-642.5610046386719px, -357.01300048828125px) translate(-3px, 4px);}100%{-webkit-transform: translate(642.5610046386719px, 357.01300048828125px) translate(-642.5610046386719px, -357.01300048828125px) translate(-3px, 4px);transform: translate(642.5610046386719px, 357.01300048828125px) translate(-642.5610046386719px, -357.01300048828125px) translate(-3px, 4px);}}@keyframes kf_el_vXayT5dVdUI_an_eof_h7TRO{0%{-webkit-transform: translate(642.5610046386719px, 357.01300048828125px) translate(-642.5610046386719px, -357.01300048828125px) translate(-3px, 4px);transform: translate(642.5610046386719px, 357.01300048828125px) translate(-642.5610046386719px, -357.01300048828125px) translate(-3px, 4px);}100%{-webkit-transform: translate(642.5610046386719px, 357.01300048828125px) translate(-642.5610046386719px, -357.01300048828125px) translate(-3px, 4px);transform: translate(642.5610046386719px, 357.01300048828125px) translate(-642.5610046386719px, -357.01300048828125px) translate(-3px, 4px);}}#el_5fjbDKva0 *{-webkit-animation-duration: 5s;animation-duration: 5s;-webkit-animation-iteration-count: infinite;animation-iteration-count: infinite;-webkit-animation-timing-function: cubic-bezier(0, 0, 1, 1);animation-timing-function: cubic-bezier(0, 0, 1, 1);}#el_QWr2ymKvs7{stroke: none;stroke-width: 1;fill: none;}#el_oUZM0JhAVG{-webkit-transform: translate(-1px, -1px);transform: translate(-1px, -1px);}#el_J2KhGwh69Q{-webkit-transform: translate(1px, 1px);transform: translate(1px, 1px);}#el_ZekjfmozqB{fill: #FFFFFF;}#el_t9ayzrOx3p{fill: #EFAEC1;}#el_PrsL0kxZrU{fill: #FFFFFF;}#el_ZJeIs5suYt{fill: #EFAEC1;}#el_vkvnq2dwHU{fill: #FFFFFF;}#el_2v-EJoY6xV{fill: #FFFFFF;}#el_vl_YY6GQGx{fill: #FFFFFF;}#el_AmCCOOA4Vm{fill: #FFFFFF;}#el_8PfRZBBooJ{fill: #EFAEC1;}#el_rPiHEVsbMO{fill: #FFFFFF;}#el_uc_i04XOvX{fill: #FFFFFF;}#el_eNARkU6NbX{fill: #FFFFFF;}#el_mVlDCI3XEw6{fill: #FFFFFF;}#el_nLdr1-LLKTM{fill: #FFFFFF;}#el_ejS3OngZpxS{fill: #FFFFFF;}#el_Q28gZeVXSyc{fill: #FFFFFF;}#el_69hLJU_xtsW{fill: #EFAEC1;}#el_uPwwv6H9M6A{fill: #EFAEC1;}#el_dOOFdeG4QfM{fill: #FFFFFF;}#el_ViPEWv7uTVa{fill: #FFFFFF;}#el_4p2veGcLSzi{fill: #FFFFFF;}#el_0US7HQE2t1d{fill: #FFFFFF;}#el_vXayT5dVdUI{fill: #EFAEC1;}#el_fHDzv9flC1H{fill: #EFAEC1;}#el_8P9qDVL1hYi{fill: #EFAEC1;}#el_c8Vt29o1Ma6{-webkit-transform: translate(216px, 116px);transform: translate(216px, 116px);}#el_On8K-JwGMVv{fill: #000000;}#el_JAzCs2rCbRT{fill: #EFAEC1;}#el_8VhOcMVjg9H{-webkit-transform: translate(146px, 278px);transform: translate(146px, 278px);}#el__32bVEVyOQM{fill: #000000;}#el_ZwxAtQINQO4{fill: #FFFFFF;}#el_QAfW84hGD5m{fill: #FFFFFF;}#el_vXayT5dVdUI_an_eof_h7TRO{-webkit-animation-fill-mode: backwards;animation-fill-mode: backwards;-webkit-transform: translate(642.5610046386719px, 357.01300048828125px) translate(-642.5610046386719px, -357.01300048828125px) translate(-3px, 4px);transform: translate(642.5610046386719px, 357.01300048828125px) translate(-642.5610046386719px, -357.01300048828125px) translate(-3px, 4px);-webkit-animation-name: kf_el_vXayT5dVdUI_an_eof_h7TRO;animation-name: kf_el_vXayT5dVdUI_an_eof_h7TRO;-webkit-animation-timing-function: cubic-bezier(0, 0, 1, 1);animation-timing-function: cubic-bezier(0, 0, 1, 1);}#el_vXayT5dVdUI_an_4S1FfXjtu{-webkit-animation-fill-mode: backwards;animation-fill-mode: backwards;-webkit-transform: translate(642.5610046386719px, 357.01300048828125px) rotate(0deg) translate(-642.5610046386719px, -357.01300048828125px);transform: translate(642.5610046386719px, 357.01300048828125px) rotate(0deg) translate(-642.5610046386719px, -357.01300048828125px);-webkit-animation-name: kf_el_vXayT5dVdUI_an_4S1FfXjtu;animation-name: kf_el_vXayT5dVdUI_an_4S1FfXjtu;-webkit-animation-timing-function: cubic-bezier(0, 0, 1, 1);animation-timing-function: cubic-bezier(0, 0, 1, 1);}#el_fHDzv9flC1H_an_KVMoQBdFc{-webkit-animation-fill-mode: backwards;animation-fill-mode: backwards;-webkit-transform: translate(684.4779968261719px, 317.5189971923828px) rotate(360deg) translate(-684.4779968261719px, -317.5189971923828px);transform: translate(684.4779968261719px, 317.5189971923828px) rotate(360deg) translate(-684.4779968261719px, -317.5189971923828px);-webkit-animation-name: kf_el_fHDzv9flC1H_an_KVMoQBdFc;animation-name: kf_el_fHDzv9flC1H_an_KVMoQBdFc;-webkit-animation-timing-function: cubic-bezier(0, 0, 1, 1);animation-timing-function: cubic-bezier(0, 0, 1, 1);}#el_fHDzv9flC1H_an_80qqgaPbB{-webkit-animation-fill-mode: backwards;animation-fill-mode: backwards;-webkit-transform: translate(684.4779968261719px, 317.5189971923828px) translate(-684.4779968261719px, -317.5189971923828px) translate(-1px, 3px);transform: translate(684.4779968261719px, 317.5189971923828px) translate(-684.4779968261719px, -317.5189971923828px) translate(-1px, 3px);-webkit-animation-name: kf_el_fHDzv9flC1H_an_80qqgaPbB;animation-name: kf_el_fHDzv9flC1H_an_80qqgaPbB;-webkit-animation-timing-function: cubic-bezier(0, 0, 1, 1);animation-timing-function: cubic-bezier(0, 0, 1, 1);}#el_8P9qDVL1hYi_an_Dr5-OEMPy{-webkit-animation-fill-mode: backwards;animation-fill-mode: backwards;-webkit-transform: translate(655.8280029296875px, 240.47899627685547px) rotate(0deg) translate(-655.8280029296875px, -240.47899627685547px);transform: translate(655.8280029296875px, 240.47899627685547px) rotate(0deg) translate(-655.8280029296875px, -240.47899627685547px);-webkit-animation-name: kf_el_8P9qDVL1hYi_an_Dr5-OEMPy;animation-name: kf_el_8P9qDVL1hYi_an_Dr5-OEMPy;-webkit-animation-timing-function: cubic-bezier(0, 0, 1, 1);animation-timing-function: cubic-bezier(0, 0, 1, 1);}</style>
    <defs>
        <path d="M13.68,180.32 L13.68,57.74 C13.68,54.8599856 15.6599802,53.42 19.62,53.42 C23.5800198,53.42 25.56,54.8599856 25.56,57.74 L25.56,111.56 L77.58,111.56 L77.58,57.74 C77.58,54.8599856 79.5599802,53.42 83.52,53.42 C87.4800198,53.42 89.46,54.8599856 89.46,57.74 L89.46,180.32 C89.46,181.760007 88.860006,182.899996 87.66,183.74 C86.459994,184.580004 85.0800078,185 83.52,185 C81.8399916,185 80.4300057,184.580004 79.29,183.74 C78.1499943,182.899996 77.58,181.760007 77.58,180.32 L77.58,121.82 L25.56,121.82 L25.56,180.32 C25.56,181.760007 24.960006,182.899996 23.76,183.74 C22.559994,184.580004 21.18,185 19.62,185 C17.9399916,185 16.5300057,184.580004 15.39,183.74 C14.2499943,182.899996 13.68,181.760007 13.68,180.32 Z M106.92,179.96 C106.92,179.359997 106.979999,178.940001 107.1,178.7 L144.72,56.48 C145.560004,53.7199862 147.899981,52.34 151.74,52.34 C155.580019,52.34 157.979995,53.7199862 158.94,56.48 L196.38,178.7 C196.38,178.820001 196.41,178.999999 196.47,179.24 C196.53,179.480001 196.56,179.659999 196.56,179.78 C196.56,181.220007 195.780008,182.449995 194.22,183.47 C192.659992,184.490005 191.040008,185 189.36,185 C187.079989,185 185.580004,183.98001 184.86,181.94 L176.58,154.22 L126.72,154.22 L118.44,181.94 C117.959998,183.98001 116.400013,185 113.76,185 C112.079992,185 110.520007,184.520005 109.08,183.56 C107.639993,182.599995 106.92,181.400007 106.92,179.96 Z M129.78,143.96 L173.52,143.96 L151.74,71.42 L129.78,143.96 Z M212.58,147.56 L212.58,91.76 C212.58,78.6799346 216.089965,69.0200312 223.11,62.78 C230.130035,56.5399688 239.219944,53.42 250.38,53.42 C261.780057,53.42 270.809967,56.3299709 277.47,62.15 C284.130033,67.9700291 287.46,75.079958 287.46,83.48 C287.46,86.3600144 287.010004,88.2799952 286.11,89.24 C285.209995,90.2000048 283.680011,90.68 281.52,90.68 C277.799981,90.68 275.820001,89.180015 275.58,86.18 C275.459999,84.379991 275.220002,82.6400084 274.86,80.96 C274.499998,79.2799916 273.780005,77.3900105 272.7,75.29 C271.619995,73.1899895 270.210009,71.3600078 268.47,69.8 C266.729991,68.2399922 264.300016,66.9500051 261.18,65.93 C258.059984,64.9099949 254.46002,64.4 250.38,64.4 C233.099914,64.4 224.46,73.5199088 224.46,91.76 L224.46,147.56 C224.46,165.920092 233.339911,175.1 251.1,175.1 C256.140025,175.1 260.339983,174.410007 263.7,173.03 C267.060017,171.649993 269.519992,169.640013 271.08,167 C272.640008,164.359987 273.689997,162.110009 274.23,160.25 C274.770003,158.389991 275.219998,155.960015 275.58,152.96 C275.940002,149.839984 277.919982,148.28 281.52,148.28 C283.680011,148.28 285.209995,148.789995 286.11,149.81 C287.010004,150.830005 287.46,152.779986 287.46,155.66 C287.46,164.180043 284.070034,171.379971 277.29,177.26 C270.509966,183.140029 261.360058,186.08 249.84,186.08 C238.799945,186.08 229.830034,182.960031 222.93,176.72 C216.029965,170.479969 212.58,160.760066 212.58,147.56 Z M308.16,180.32 L308.16,57.74 C308.16,54.8599856 310.13998,53.42 314.1,53.42 C318.06002,53.42 320.04,54.8599856 320.04,57.74 L320.04,121.46 L372.06,55.22 C372.900004,54.019994 374.16,53.42 375.84,53.42 C377.280007,53.42 378.719993,54.0799934 380.16,55.4 C381.600007,56.7200066 382.32,58.0999928 382.32,59.54 C382.32,60.6200054 382.020003,61.5199964 381.42,62.24 L342.72,110.3 L387,176.9 C387.480002,177.860005 387.72,178.639997 387.72,179.24 C387.72,180.800008 387.000007,182.209994 385.56,183.47 C384.119993,184.730006 382.560008,185.36 380.88,185.36 C379.199992,185.36 377.700007,184.460009 376.38,182.66 L334.8,120.2 L320.04,138.92 L320.04,180.32 C320.04,181.760007 319.440006,182.899996 318.24,183.74 C317.039994,184.580004 315.66,185 314.1,185 C312.419992,185 311.010006,184.580004 309.87,183.74 C308.729994,182.899996 308.16,181.760007 308.16,180.32 Z" id="path-1"/>
        <path d="M11.534,129.136 L11.534,50.294 C11.534,47.7659874 13.2719826,46.502 16.748,46.502 C20.2240174,46.502 21.962,47.7659874 21.962,50.294 L21.962,129.136 C21.962,137.141373 23.9369803,143.171646 27.887,147.227 C31.8370197,151.282354 37.4459637,153.31 44.714,153.31 C51.9820363,153.31 57.5909803,151.282354 61.541,147.227 C65.4910197,143.171646 67.466,137.141373 67.466,129.136 L67.466,50.294 C67.466,47.7659874 69.2039826,46.502 72.68,46.502 C76.1560174,46.502 77.894,47.7659874 77.894,50.294 L77.894,129.136 C77.894,140.828058 74.865697,149.386306 68.809,154.811 C62.7523031,160.235694 54.7207167,162.948 44.714,162.948 C34.7072833,162.948 26.675697,160.235694 20.619,154.811 C14.5623031,149.386306 11.534,140.828058 11.534,129.136 Z M101.436,157.892 L101.436,51.558 C101.436,48.1873165 103.173983,46.502 106.65,46.502 C109.704682,46.502 112.495987,48.9246424 115.024,53.77 L142.2,106.226 L169.376,53.77 C171.904013,48.9246424 174.695318,46.502 177.75,46.502 C181.226017,46.502 182.964,48.1873165 182.964,51.558 L182.964,157.892 C182.964,159.156006 182.463672,160.156663 181.463,160.894 C180.462328,161.631337 179.224674,162 177.75,162 C176.38066,162 175.169339,161.631337 174.116,160.894 C173.062661,160.156663 172.536,159.156006 172.536,157.892 L172.536,69.096 L146.308,118.708 C145.149328,120.920011 143.727342,122.026 142.042,122.026 C140.461992,122.026 139.092672,120.920011 137.934,118.708 L111.864,68.622 L111.864,157.892 C111.864,159.156006 111.337339,160.156663 110.284,160.894 C109.230661,161.631337 108.01934,162 106.65,162 C105.175326,162 103.937672,161.631337 102.937,160.894 C101.936328,160.156663 101.436,159.156006 101.436,157.892 Z M198.29,157.576 C198.29,157.049331 198.342666,156.680668 198.448,156.47 L231.47,49.188 C232.207337,46.7653212 234.261316,45.554 237.632,45.554 C241.002684,45.554 243.109329,46.7653212 243.952,49.188 L276.816,156.47 C276.816,156.575334 276.842333,156.733332 276.895,156.944 C276.947667,157.154668 276.974,157.312666 276.974,157.418 C276.974,158.682006 276.28934,159.761662 274.92,160.657 C273.55066,161.552338 272.128674,162 270.654,162 C268.652657,162 267.336003,161.104676 266.704,159.314 L259.436,134.982 L215.67,134.982 L208.402,159.314 C207.980665,161.104676 206.611345,162 204.294,162 C202.819326,162 201.450006,161.578671 200.186,160.736 C198.921994,159.893329 198.29,158.840006 198.29,157.576 Z M218.356,125.976 L256.75,125.976 L237.632,62.302 L218.356,125.976 Z M285.98,146.042 C285.98,144.777994 286.480328,143.487673 287.481,142.171 C288.481672,140.854327 289.561328,140.196 290.72,140.196 C291.562671,140.196 292.615994,140.88066 293.88,142.25 L298.304,146.832 C299.884008,148.517342 302.38565,150.018327 305.809,151.335 C309.23235,152.651673 313.208644,153.31 317.738,153.31 C325.216704,153.31 331.009979,151.440352 335.118,147.701 C339.226021,143.961648 341.28,138.563369 341.28,131.506 C341.28,126.765976 340.305676,122.737017 338.357,119.419 C336.408324,116.100983 333.906682,113.546676 330.852,111.756 C327.902652,109.859991 324.532019,108.174674 320.74,106.7 L309.364,102.276 C305.571981,100.801326 302.175015,99.0370103 299.173,96.983 C296.170985,94.9289897 293.695676,92.032352 291.747,88.293 C289.798324,84.553648 288.824,80.1033591 288.824,74.942 C288.824,69.4646393 289.85099,64.7510198 291.905,60.801 C293.95901,56.8509803 296.723983,53.8753433 300.2,51.874 C303.676017,49.8726567 307.230982,48.4243378 310.865,47.529 C314.499018,46.6336622 318.317313,46.186 322.32,46.186 C328.745365,46.186 334.775638,47.1076574 340.411,48.951 C346.046362,50.7943426 348.864,53.0853196 348.864,55.824 C348.864,57.0880063 348.416338,58.3783267 347.521,59.695 C346.625662,61.0116733 345.546006,61.67 344.282,61.67 C343.649997,61.67 342.438676,61.1696717 340.648,60.169 C338.857324,59.1683283 336.355683,58.1676717 333.143,57.167 C329.930317,56.1663283 326.270021,55.666 322.162,55.666 C315.525967,55.666 310.048688,57.0879858 305.73,59.932 C301.411312,62.7760142 299.252,67.4633007 299.252,73.994 C299.252,78.523356 300.54232,82.3153181 303.123,85.37 C305.70368,88.4246819 308.942647,90.6366598 312.84,92.006 C316.737353,93.3753402 320.950644,95.0079905 325.48,96.904 C330.009356,98.8000095 334.222647,100.827656 338.12,102.987 C342.017353,105.146344 345.25632,108.569643 347.837,113.257 C350.41768,117.944357 351.708,123.711299 351.708,130.558 C351.708,141.407388 348.70603,149.544306 342.702,154.969 C336.69797,160.393694 328.587384,163.106 318.37,163.106 C309.205954,163.106 301.516698,161.13102 295.302,157.181 C289.087302,153.23098 285.98,149.518017 285.98,146.042 Z M364.032,146.042 C364.032,144.777994 364.532328,143.487673 365.533,142.171 C366.533672,140.854327 367.613328,140.196 368.772,140.196 C369.614671,140.196 370.667994,140.88066 371.932,142.25 L376.356,146.832 C377.936008,148.517342 380.43765,150.018327 383.861,151.335 C387.28435,152.651673 391.260644,153.31 395.79,153.31 C403.268704,153.31 409.061979,151.440352 413.17,147.701 C417.278021,143.961648 419.332,138.563369 419.332,131.506 C419.332,126.765976 418.357676,122.737017 416.409,119.419 C414.460324,116.100983 411.958682,113.546676 408.904,111.756 C405.954652,109.859991 402.584019,108.174674 398.792,106.7 L387.416,102.276 C383.623981,100.801326 380.227015,99.0370103 377.225,96.983 C374.222985,94.9289897 371.747676,92.032352 369.799,88.293 C367.850324,84.553648 366.876,80.1033591 366.876,74.942 C366.876,69.4646393 367.90299,64.7510198 369.957,60.801 C372.01101,56.8509803 374.775983,53.8753433 378.252,51.874 C381.728017,49.8726567 385.282982,48.4243378 388.917,47.529 C392.551018,46.6336622 396.369313,46.186 400.372,46.186 C406.797365,46.186 412.827638,47.1076574 418.463,48.951 C424.098362,50.7943426 426.916,53.0853196 426.916,55.824 C426.916,57.0880063 426.468338,58.3783267 425.573,59.695 C424.677662,61.0116733 423.598006,61.67 422.334,61.67 C421.701997,61.67 420.490676,61.1696717 418.7,60.169 C416.909324,59.1683283 414.407683,58.1676717 411.195,57.167 C407.982317,56.1663283 404.322021,55.666 400.214,55.666 C393.577967,55.666 388.100688,57.0879858 383.782,59.932 C379.463312,62.7760142 377.304,67.4633007 377.304,73.994 C377.304,78.523356 378.59432,82.3153181 381.175,85.37 C383.75568,88.4246819 386.994647,90.6366598 390.892,92.006 C394.789353,93.3753402 399.002644,95.0079905 403.532,96.904 C408.061356,98.8000095 412.274647,100.827656 416.172,102.987 C420.069353,105.146344 423.30832,108.569643 425.889,113.257 C428.46968,117.944357 429.76,123.711299 429.76,130.558 C429.76,141.407388 426.75803,149.544306 420.754,154.969 C414.74997,160.393694 406.639384,163.106 396.422,163.106 C387.257954,163.106 379.568698,161.13102 373.354,157.181 C367.139302,153.23098 364.032,149.518017 364.032,146.042 Z" id="path-2"/>
    </defs>
    <g id="el_QWr2ymKvs7" fill-rule="evenodd">
        <g id="el_oUZM0JhAVG">
            <g id="el_J2KhGwh69Q" fill-rule="nonzero">
                <path d="M26.284,255.076 L19.712,248.356 L95.654,174.1 L95.654,160.37 L126.602,129.432 L126.602,86.098 L138.802,68.058 L138.802,2.446 C139.607426,1.5796847 140.260376,1.03789098 140.76085,0.82061884 C141.511562,0.49471063 142.124595,0.25146474 143.486734,0.20131306 C144.848872,0.15116138 145.549456,0.43514118 146.272988,0.72974136 C146.755343,0.92614148 147.39768,1.49822769 148.2,2.446 L148.2,70.936 L136,88.974 L136,133.324 L105.052,164.266 L105.052,178.05 L26.284,255.076 Z" id="el_ZekjfmozqB"/>
                <polygon id="el_t9ayzrOx3p" points="121.384 243.81 111.984 243.81 111.984 167.626 141.548 136.984 160.11 136.984 198.782 92.284 235.308 92.284 235.308 101.682 203.076 101.682 164.406 146.384 143.382 146.384 121.384 169.182"/>
                <polygon id="el_PrsL0kxZrU" points="177.994 306.774 157.554 288.166 157.554 241.862 129.18 217.802 129.18 167.708 143.22 153.326 179.206 153.326 189.864 142.666 196.512 149.312 183.102 162.72 146.89 162.72 138.576 171.376 138.576 213.452 166.958 237.502 166.958 284.022 168.498 285.424 184.316 299.828"/>
                <path d="M64.878,171.768 L58.454,164.91 L111.114,115.592 L111.114,18.4 C111.858081,17.8144984 112.408232,17.4366768 112.764456,17.2665352 C113.94013,16.7050026 115.002025,16.6180756 115.828888,16.6180756 C116.535299,16.6180756 117.4768,16.7348905 118.430491,17.1447392 C118.877137,17.3366851 119.570973,17.7551054 120.512,18.4 L120.512,119.668 L64.878,171.768 Z" id="el_ZJeIs5suYt"/>
                <path d="M116.686,240.478 C108.42,240.478 101.704,247.192 101.704,255.474 C101.704,263.75 108.418,270.454 116.686,270.454 C124.972,270.454 131.674,263.746 131.674,255.474 C131.674,247.194 124.972,240.478 116.686,240.478 Z" id="el_vkvnq2dwHU"/>
                <path d="M72.428,256.052 C64.138,256.052 57.432,262.786 57.432,271.052 C57.432,279.334 64.138,286.036 72.428,286.036 C80.7,286.036 87.4060004,279.33 87.4060004,271.052 C87.408,262.788 80.7,256.052 72.428,256.052 Z" id="el_2v-EJoY6xV"/>
                <circle id="el_vl_YY6GQGx" cx="72.428" cy="271.058" r="7.498"/>
                <path d="M116.686,300.552 C108.42,300.552 101.704,307.252 101.704,315.528 C101.704,323.804 108.418,330.528 116.686,330.528 C124.972,330.528 131.674,323.806 131.674,315.528 C131.674,307.26 124.972,300.552 116.686,300.552 Z" id="el_AmCCOOA4Vm"/>
                <path d="M116.686,308.044 C112.55,308.044 109.19,311.396 109.19,315.528 C109.19,319.674 112.55,323.032 116.686,323.032 C120.84,323.032 124.186,319.674 124.186,315.528 C124.184,311.396 120.84,308.044 116.686,308.044 Z" id="el_8PfRZBBooJ"/>
                <path d="M15.5,243.912 C7.204,243.912 0.504,250.616 0.504,258.888 C0.504,267.168 7.206,273.884 15.5,273.884 C23.78,273.884 30.474,267.168 30.474,258.888 C30.472,250.616 23.782,243.912 15.5,243.912 Z" id="el_rPiHEVsbMO"/>
                <path d="M15.5,251.384 C11.352,251.384 8,254.75 8,258.894 C8,263.04 11.352,266.394 15.5,266.394 C19.618,266.394 22.9880009,263.04 22.9880009,258.894 C22.99,254.75 19.62,251.384 15.5,251.384 Z" id="el_uc_i04XOvX"/>
                <path d="M204.578,125.518 C196.31,125.518 189.604,132.226 189.604,140.514 C189.604,148.788 196.302,155.492 204.578,155.492 C212.876,155.492 219.574,148.784 219.574,140.514 C219.572,132.222 212.874,125.518 204.578,125.518 Z" id="el_eNARkU6NbX"/>
                <path d="M204.578,133.014 C200.436,133.014 197.09,136.374 197.09,140.514 C197.09,144.632 200.436,148.008 204.578,148.008 C208.726,148.008 212.084,144.632 212.084,140.514 C212.076,136.374 208.72,133.014 204.578,133.014 Z" id="el_mVlDCI3XEw6"/>
                <path d="M247.13,82.012 C238.848,82.012 232.142,88.716 232.142,96.986 C232.142,105.282 238.848,111.988 247.13,111.988 C255.424,111.988 262.122,105.28 262.122,96.986 C262.124,88.71 255.424,82.012 247.13,82.012 Z" id="el_nLdr1-LLKTM"/>
                <path d="M247.13,89.494 C242.984,89.494 239.63,92.842 239.63,96.982 C239.63,101.138 242.982,104.476 247.13,104.476 C251.268,104.476 254.622,101.138 254.622,96.982 C254.622,92.842 251.268,89.494 247.13,89.494 Z" id="el_ejS3OngZpxS"/>
                <path d="M159.624,170.396 C151.332,170.396 144.63,177.122 144.63,185.382 C144.63,193.662 151.332,200.38 159.624,200.38 C167.898,200.38 174.6,193.662 174.6,185.382 C174.598,177.124 167.906,170.396 159.624,170.396 Z" id="el_Q28gZeVXSyc"/>
                <path d="M159.624,177.888 C155.48,177.888 152.124,181.252 152.124,185.388 C152.124,189.536 155.48,192.888 159.624,192.888 C163.754,192.888 167.106,189.536 167.106,185.388 C167.106,181.252 163.752,177.888 159.624,177.888 Z" id="el_69hLJU_xtsW"/>
                <path d="M200.816,190.082 L174.598,190.082 L174.598,180.688 L196.74,180.688 L295.276,75.416 C297.732933,75.0725582 299.556977,75.4580528 300.748134,76.5724838 C301.93929,77.6869148 302.402579,79.4414202 302.138,81.836 L200.816,190.082 Z" id="el_uPwwv6H9M6A"/>
                <path d="M54.154,162.27 C45.866,162.27 39.154,168.978 39.154,177.252 C39.154,185.52 45.868,192.244 54.154,192.244 C62.428,192.244 69.136,185.52 69.136,177.252 C69.136,168.978 62.43,162.27 54.154,162.27 Z" id="el_dOOFdeG4QfM"/>
                <path d="M188.406,296.682 C180.128,296.682 173.422,303.392 173.422,311.686 C173.422,319.94 180.128,326.66 188.406,326.66 C196.694,326.66 203.394002,319.94 203.394002,311.686 C203.398,303.392 196.7,296.682 188.406,296.682 Z" id="el_ViPEWv7uTVa"/>
                <path d="M316.3,93.234 C308.034,93.234 301.32,99.934 301.32,108.21 C301.32,116.486 308.034,123.206 316.3,123.206 C324.586,123.206 331.288,116.488 331.288,108.21 C331.288,99.942 324.584,93.234 316.3,93.234 Z" id="el_4p2veGcLSzi"/>
                <path d="M287.788,121.748 C279.522,121.748 272.806,128.446 272.806,136.722 C272.806,145 279.52,151.718 287.788,151.718 C296.074,151.718 302.776,145 302.776,136.722 C302.776,128.454 296.074,121.748 287.788,121.748 Z" id="el_0US7HQE2t1d"/>
                <g id="el_vXayT5dVdUI_an_eof_h7TRO" data-animator-group="true" data-animator-type="0"><g id="el_vXayT5dVdUI_an_4S1FfXjtu" data-animator-group="true" data-animator-type="1"><path d="M663.486,362.754 L670.582,361.462 L670.758,353.872 L663.732,352.254 L661.418,346.27 L665.526,340.35 L660.292,334.858 L654.174,338.682 L648.306,336.082 L647.014,328.992 L639.428,328.818 L637.804,335.838 L631.822,338.154 L625.898,334.048 L620.408,339.288 L624.228,345.4 L621.634,351.27 L614.544,352.56 L614.364,360.144 L621.386,361.766 L623.704,367.752 L619.6,373.67 L624.842,379.162 L630.952,375.344 L636.818,377.938 L638.11,385.034 L645.694,385.208 L647.316,378.178 L653.296,375.872 L659.222,379.974 L664.712,374.734 L660.896,368.618 L663.486,362.754 Z M637.882,367.578 C632.08,365.08 629.396,358.352 631.89,352.554 C634.386,346.75 641.11,344.072 646.918,346.568 C652.712,349.062 655.394,355.788 652.9,361.59 C650.41,367.388 643.68,370.07 637.882,367.578 Z" id="el_vXayT5dVdUI"/></g></g>
                <g id="el_fHDzv9flC1H_an_80qqgaPbB" data-animator-group="true" data-animator-type="0"><g id="el_fHDzv9flC1H_an_KVMoQBdFc" data-animator-group="true" data-animator-type="1"><path d="M711.498,314.85 L719.206,310.162 L716.01,301.214 L707.07,302.47 L701.694,296.524 L703.83,287.754 L695.246,283.692 L689.814,290.896 L681.802,290.496 L677.112,282.79 L668.172,285.988 L669.42,294.92 L663.474,300.302 L654.708,298.164 L650.644,306.748 L657.852,312.18 L657.454,320.194 L649.75,324.876 L652.938,333.824 L661.872,332.572 L667.254,338.528 L665.114,347.278 L673.7,351.346 L679.13,344.144 L687.146,344.544 L691.834,352.248 L700.782,349.052 L699.52,340.118 L705.472,334.742 L714.242,336.874 L718.306,328.29 L711.098,322.854 L711.498,314.85 Z M683.85,329.474 C677.328,329.212 672.258,323.718 672.504,317.202 C672.762,310.682 678.264,305.608 684.788,305.862 C691.298,306.122 696.384,311.616 696.11,318.142 C695.856,324.652 690.368,329.728 683.85,329.474 Z" id="el_fHDzv9flC1H"/></g></g>
                <g id="el_8P9qDVL1hYi_an_Dr5-OEMPy" data-animator-group="true" data-animator-type="1"><path d="M709.748,251.562 L697.724,245.384 L697.662,235.026 L709.6,228.686 L705.968,217.756 L692.612,219.82 L686.472,211.482 L692.402,199.334 L683.034,192.626 L673.436,202.148 L663.568,199.01 L661.232,185.7 C659.080984,185.714549 657.082645,185.728065 655.236984,185.740549 C653.391323,185.753033 651.545661,185.765516 649.7,185.778 L647.54,199.118 L637.712,202.384 L627.998,192.988 L618.72,199.822 L624.806,211.884 L618.774,220.3 L605.396,218.418 L601.908,229.396 L613.924,235.58 L613.986,245.932 L602.056,252.272 L605.684,263.206 L619.044,261.14 L625.184,269.48 L619.246,281.62 L628.614,288.334 L638.212,278.818 L648.084,281.946 L650.424,295.258 L661.944,295.182 L664.108,281.836 L673.936,278.578 L683.658,287.968 L692.928,281.14 L686.838,269.066 L692.874,260.652 L706.256,262.536 L709.748,251.562 Z M655.828,254.034 C648.332,254.034 642.266,247.968 642.266,240.48 C642.266,232.992 648.332,226.918 655.828,226.918 C663.316,226.918 669.382,232.992 669.382,240.48 C669.382,247.966 663.316,254.034 655.828,254.034 Z" id="el_8P9qDVL1hYi"/></g>
            </g>
            <g id="el_c8Vt29o1Ma6" fill-rule="nonzero">
                <g id="el_msZTz7mwVxM">
                    <use xlink:href="#path-1" id="el_On8K-JwGMVv"/>
                    <use xlink:href="#path-1" id="el_JAzCs2rCbRT"/>
                </g>
            </g>
            <g id="el_8VhOcMVjg9H" fill-rule="nonzero">
                <g id="el_Hlva-RjIkRx">
                    <use xlink:href="#path-2" id="el__32bVEVyOQM"/>
                    <use xlink:href="#path-2" id="el_ZwxAtQINQO4"/>
                </g>
            </g>
            <g id="el_x0x9TnuAySE"/>
            <polygon id="el_QAfW84hGD5m" fill-rule="nonzero" points="157.491024 330.555529 157.896849 243.088675 167.993459 243.088675 167.993459 330.555529"/>
        </g>
    </g>
</svg>