<?xml version="1.0" encoding="UTF-8"?>
<svg width="754px" height="472px" viewBox="0 0 754 472" version="1.1" xmlns="http://www.w3.org/2000/svg" xmlns:xlink="http://www.w3.org/1999/xlink">
    <!-- Generator: Sketch 48.1 (47250) - http://www.bohemiancoding.com/sketch -->
    <title>Pink and White</title>
    <desc>Created with Sketch.</desc>
    <defs></defs>
    <g id="Page-1" stroke="none" stroke-width="1" fill="none" fill-rule="evenodd">
        <g id="Purple-and-White">
            <g id="Group" transform="translate(22.000000, 18.000000)">
                <g id="logo" fill-rule="nonzero">
                    <path d="M27.284,256.076 L20.712,249.356 L96.654,175.1 L96.654,161.37 L127.602,130.432 L127.602,87.098 L139.802,69.058 L139.802,3.446 C140.607426,2.5796847 141.260376,2.03789098 141.76085,1.82061884 C142.511562,1.49471063 143.124595,1.25146474 144.486734,1.20131306 C145.848872,1.15116138 146.549456,1.43514118 147.272988,1.72974136 C147.755343,1.92614148 148.39768,2.49822769 149.2,3.446 L149.2,71.936 L137,89.974 L137,134.324 L106.052,165.266 L106.052,179.05 L27.284,256.076 Z" id="Shape" fill="#FFFFFF"></path>
                    <polygon id="Shape" fill="#EFAEC1" points="122.384 244.81 112.984 244.81 112.984 168.626 142.548 137.984 161.11 137.984 199.782 93.284 236.308 93.284 236.308 102.682 204.076 102.682 165.406 147.384 144.382 147.384 122.384 170.182"></polygon>
                    <polygon id="Shape" fill="#FFFFFF" points="178.994 307.774 158.554 289.166 158.554 242.862 130.18 218.802 130.18 168.708 144.22 154.326 180.206 154.326 190.864 143.666 197.512 150.312 184.102 163.72 147.89 163.72 139.576 172.376 139.576 214.452 167.958 238.502 167.958 285.022 169.498 286.424 185.316 300.828"></polygon>
                    <path d="M65.878,172.768 L59.454,165.91 L112.114,116.592 L112.114,19.4 C112.858081,18.8144984 113.408232,18.4366768 113.764456,18.2665352 C114.94013,17.7050026 116.002025,17.6180756 116.828888,17.6180756 C117.535299,17.6180756 118.4768,17.7348905 119.430491,18.1447392 C119.877137,18.3366851 120.570973,18.7551054 121.512,19.4 L121.512,120.668 L65.878,172.768 Z" id="Shape" fill="#EFAEC1"></path>
                    <path d="M117.686,241.478 C109.42,241.478 102.704,248.192 102.704,256.474 C102.704,264.75 109.418,271.454 117.686,271.454 C125.972,271.454 132.674,264.746 132.674,256.474 C132.674,248.194 125.972,241.478 117.686,241.478 Z" id="Shape" fill="#FFFFFF"></path>
                    <path d="M73.428,257.052 C65.138,257.052 58.432,263.786 58.432,272.052 C58.432,280.334 65.138,287.036 73.428,287.036 C81.7,287.036 88.406,280.33 88.406,272.052 C88.408,263.788 81.7,257.052 73.428,257.052 Z" id="Shape" fill="#FFFFFF"></path>
                    <circle id="Oval" fill="#FFFFFF" cx="73.428" cy="272.058" r="7.498"></circle>
                    <path d="M117.686,301.552 C109.42,301.552 102.704,308.252 102.704,316.528 C102.704,324.804 109.418,331.528 117.686,331.528 C125.972,331.528 132.674,324.806 132.674,316.528 C132.674,308.26 125.972,301.552 117.686,301.552 Z" id="Shape" fill="#FFFFFF"></path>
                    <path d="M117.686,309.044 C113.55,309.044 110.19,312.396 110.19,316.528 C110.19,320.674 113.55,324.032 117.686,324.032 C121.84,324.032 125.186,320.674 125.186,316.528 C125.184,312.396 121.84,309.044 117.686,309.044 Z" id="Shape" fill="#EFAEC1"></path>
                    <path d="M16.5,244.912 C8.204,244.912 1.504,251.616 1.504,259.888 C1.504,268.168 8.206,274.884 16.5,274.884 C24.78,274.884 31.474,268.168 31.474,259.888 C31.472,251.616 24.782,244.912 16.5,244.912 Z" id="Shape" fill="#FFFFFF"></path>
                    <path d="M16.5,252.384 C12.352,252.384 9,255.75 9,259.894 C9,264.04 12.352,267.394 16.5,267.394 C20.618,267.394 23.988,264.04 23.988,259.894 C23.99,255.75 20.62,252.384 16.5,252.384 Z" id="Shape" fill="#FFFFFF"></path>
                    <path d="M205.578,126.518 C197.31,126.518 190.604,133.226 190.604,141.514 C190.604,149.788 197.302,156.492 205.578,156.492 C213.876,156.492 220.574,149.784 220.574,141.514 C220.572,133.222 213.874,126.518 205.578,126.518 Z" id="Shape" fill="#FFFFFF"></path>
                    <path d="M205.578,134.014 C201.436,134.014 198.09,137.374 198.09,141.514 C198.09,145.632 201.436,149.008 205.578,149.008 C209.726,149.008 213.084,145.632 213.084,141.514 C213.076,137.374 209.72,134.014 205.578,134.014 Z" id="Shape" fill="#FFFFFF"></path>
                    <path d="M248.13,83.012 C239.848,83.012 233.142,89.716 233.142,97.986 C233.142,106.282 239.848,112.988 248.13,112.988 C256.424,112.988 263.122,106.28 263.122,97.986 C263.124,89.71 256.424,83.012 248.13,83.012 Z" id="Shape" fill="#FFFFFF"></path>
                    <path d="M248.13,90.494 C243.984,90.494 240.63,93.842 240.63,97.982 C240.63,102.138 243.982,105.476 248.13,105.476 C252.268,105.476 255.622,102.138 255.622,97.982 C255.622,93.842 252.268,90.494 248.13,90.494 Z" id="Shape" fill="#FFFFFF"></path>
                    <path d="M160.624,171.396 C152.332,171.396 145.63,178.122 145.63,186.382 C145.63,194.662 152.332,201.38 160.624,201.38 C168.898,201.38 175.6,194.662 175.6,186.382 C175.598,178.124 168.906,171.396 160.624,171.396 Z" id="Shape" fill="#FFFFFF"></path>
                    <path d="M160.624,178.888 C156.48,178.888 153.124,182.252 153.124,186.388 C153.124,190.536 156.48,193.888 160.624,193.888 C164.754,193.888 168.106,190.536 168.106,186.388 C168.106,182.252 164.752,178.888 160.624,178.888 Z" id="Shape" fill="#EFAEC1"></path>
                    <path d="M201.816,191.082 L175.598,191.082 L175.598,181.688 L197.74,181.688 L296.276,76.416 C298.732933,76.0725582 300.556977,76.4580528 301.748134,77.5724838 C302.93929,78.6869148 303.402579,80.4414202 303.138,82.836 L201.816,191.082 Z" id="Shape" fill="#EFAEC1"></path>
                    <path d="M55.154,163.27 C46.866,163.27 40.154,169.978 40.154,178.252 C40.154,186.52 46.868,193.244 55.154,193.244 C63.428,193.244 70.136,186.52 70.136,178.252 C70.136,169.978 63.43,163.27 55.154,163.27 Z" id="Shape" fill="#FFFFFF"></path>
                    <path d="M189.406,297.682 C181.128,297.682 174.422,304.392 174.422,312.686 C174.422,320.94 181.128,327.66 189.406,327.66 C197.694,327.66 204.394,320.94 204.394,312.686 C204.398,304.392 197.7,297.682 189.406,297.682 Z" id="Shape" fill="#FFFFFF"></path>
                    <path d="M317.3,94.234 C309.034,94.234 302.32,100.934 302.32,109.21 C302.32,117.486 309.034,124.206 317.3,124.206 C325.586,124.206 332.288,117.488 332.288,109.21 C332.288,100.942 325.584,94.234 317.3,94.234 Z" id="Shape" fill="#FFFFFF"></path>
                    <path d="M288.788,122.748 C280.522,122.748 273.806,129.446 273.806,137.722 C273.806,146 280.52,152.718 288.788,152.718 C297.074,152.718 303.776,146 303.776,137.722 C303.776,129.454 297.074,122.748 288.788,122.748 Z" id="Shape" fill="#FFFFFF"></path>
                    <path d="M664.486,363.754 L671.582,362.462 L671.758,354.872 L664.732,353.254 L662.418,347.27 L666.526,341.35 L661.292,335.858 L655.174,339.682 L649.306,337.082 L648.014,329.992 L640.428,329.818 L638.804,336.838 L632.822,339.154 L626.898,335.048 L621.408,340.288 L625.228,346.4 L622.634,352.27 L615.544,353.56 L615.364,361.144 L622.386,362.766 L624.704,368.752 L620.6,374.67 L625.842,380.162 L631.952,376.344 L637.818,378.938 L639.11,386.034 L646.694,386.208 L648.316,379.178 L654.296,376.872 L660.222,380.974 L665.712,375.734 L661.896,369.618 L664.486,363.754 Z M638.882,368.578 C633.08,366.08 630.396,359.352 632.89,353.554 C635.386,347.75 642.11,345.072 647.918,347.568 C653.712,350.062 656.394,356.788 653.9,362.59 C651.41,368.388 644.68,371.07 638.882,368.578 Z" id="hackumass-logo-bottom-gear" fill="#EFAEC1"></path>
                    <path d="M712.498,315.85 L720.206,311.162 L717.01,302.214 L708.07,303.47 L702.694,297.524 L704.83,288.754 L696.246,284.692 L690.814,291.896 L682.802,291.496 L678.112,283.79 L669.172,286.988 L670.42,295.92 L664.474,301.302 L655.708,299.164 L651.644,307.748 L658.852,313.18 L658.454,321.194 L650.75,325.876 L653.938,334.824 L662.872,333.572 L668.254,339.528 L666.114,348.278 L674.7,352.346 L680.13,345.144 L688.146,345.544 L692.834,353.248 L701.782,350.052 L700.52,341.118 L706.472,335.742 L715.242,337.874 L719.306,329.29 L712.098,323.854 L712.498,315.85 Z M684.85,330.474 C678.328,330.212 673.258,324.718 673.504,318.202 C673.762,311.682 679.264,306.608 685.788,306.862 C692.298,307.122 697.384,312.616 697.11,319.142 C696.856,325.652 691.368,330.728 684.85,330.474 Z" id="hackumass-logo-middle-gear" fill="#EFAEC1"></path>
                    <path d="M710.748,252.562 L698.724,246.384 L698.662,236.026 L710.6,229.686 L706.968,218.756 L693.612,220.82 L687.472,212.482 L693.402,200.334 L684.034,193.626 L674.436,203.148 L664.568,200.01 L662.232,186.7 C660.080984,186.714549 658.082645,186.728065 656.236984,186.740549 C654.391323,186.753033 652.545661,186.765516 650.7,186.778 L648.54,200.118 L638.712,203.384 L628.998,193.988 L619.72,200.822 L625.806,212.884 L619.774,221.3 L606.396,219.418 L602.908,230.396 L614.924,236.58 L614.986,246.932 L603.056,253.272 L606.684,264.206 L620.044,262.14 L626.184,270.48 L620.246,282.62 L629.614,289.334 L639.212,279.818 L649.084,282.946 L651.424,296.258 L662.944,296.182 L665.108,282.836 L674.936,279.578 L684.658,288.968 L693.928,282.14 L687.838,270.066 L693.874,261.652 L707.256,263.536 L710.748,252.562 Z M656.828,255.034 C649.332,255.034 643.266,248.968 643.266,241.48 C643.266,233.992 649.332,227.918 656.828,227.918 C664.316,227.918 670.382,233.992 670.382,241.48 C670.382,248.966 664.316,255.034 656.828,255.034 Z" id="hackumass-logo-top-gear" fill="#EFAEC1"></path>
                </g>
                <text id="HACK" font-family="Dosis-Medium, Dosis" font-size="180" font-weight="400" letter-spacing="0.744478405" fill="#EFAEC1">
                    <tspan x="216" y="301">HACK</tspan>
                </text>
                <text id="UMASS" font-family="Dosis-Regular, Dosis" font-size="158" font-weight="normal" letter-spacing="0.653486609" fill="#FFFFFF">
                    <tspan x="146" y="440">UMASS</tspan>
                </text>
                <path d="" id="Path" stroke="#979797" stroke-width="2"></path>
                <polygon id="Path-2" fill="#FFFFFF" points="157.491024 330.555529 157.896849 243.088675 167.993459 243.088675 167.993459 330.555529"></polygon>
            </g>
        </g>
    </g>
</svg>