<?xml version="1.0" encoding="UTF-8"?>
<svg width="754px" height="472px" viewBox="0 0 754 472" version="1.1" xmlns="http://www.w3.org/2000/svg" xmlns:xlink="http://www.w3.org/1999/xlink">
    <!-- Generator: Sketch 48.1 (47250) - http://www.bohemiancoding.com/sketch -->
    <title>All White</title>
    <desc>Created with Sketch.</desc>
    <defs></defs>
    <g id="Page-1" stroke="none" stroke-width="1" fill="none" fill-rule="evenodd">
        <g id="All-White">
            <g id="Group" transform="translate(22.000000, 18.000000)">
                <g id="logo" fill="#FFFFFF" fill-rule="nonzero">
                    <path d="M664.486,363.754 L671.582,362.462 L671.758,354.872 L664.732,353.254 L662.418,347.27 L666.526,341.35 L661.292,335.858 L655.174,339.682 L649.306,337.082 L648.014,329.992 L640.428,329.818 L638.804,336.838 L632.822,339.154 L626.898,335.048 L621.408,340.288 L625.228,346.4 L622.634,352.27 L615.544,353.56 L615.364,361.144 L622.386,362.766 L624.704,368.752 L620.6,374.67 L625.842,380.162 L631.952,376.344 L637.818,378.938 L639.11,386.034 L646.694,386.208 L648.316,379.178 L654.296,376.872 L660.222,380.974 L665.712,375.734 L661.896,369.618 L664.486,363.754 Z M638.882,368.578 C633.08,366.08 630.396,359.352 632.89,353.554 C635.386,347.75 642.11,345.072 647.918,347.568 C653.712,350.062 656.394,356.788 653.9,362.59 C651.41,368.388 644.68,371.07 638.882,368.578 Z" id="hackumass-logo-bottom-gear"></path>
                    <path d="M712.498,315.85 L720.206,311.162 L717.01,302.214 L708.07,303.47 L702.694,297.524 L704.83,288.754 L696.246,284.692 L690.814,291.896 L682.802,291.496 L678.112,283.79 L669.172,286.988 L670.42,295.92 L664.474,301.302 L655.708,299.164 L651.644,307.748 L658.852,313.18 L658.454,321.194 L650.75,325.876 L653.938,334.824 L662.872,333.572 L668.254,339.528 L666.114,348.278 L674.7,352.346 L680.13,345.144 L688.146,345.544 L692.834,353.248 L701.782,350.052 L700.52,341.118 L706.472,335.742 L715.242,337.874 L719.306,329.29 L712.098,323.854 L712.498,315.85 Z M684.85,330.474 C678.328,330.212 673.258,324.718 673.504,318.202 C673.762,311.682 679.264,306.608 685.788,306.862 C692.298,307.122 697.384,312.616 697.11,319.142 C696.856,325.652 691.368,330.728 684.85,330.474 Z" id="hackumass-logo-middle-gear"></path>
                    <path d="M710.748,252.562 L698.724,246.384 L698.662,236.026 L710.6,229.686 L706.968,218.756 L693.612,220.82 L687.472,212.482 L693.402,200.334 L684.034,193.626 L674.436,203.148 L664.568,200.01 L662.232,186.7 C660.080984,186.714549 658.082645,186.728065 656.236984,186.740549 C654.391323,186.753033 652.545661,186.765516 650.7,186.778 L648.54,200.118 L638.712,203.384 L628.998,193.988 L619.72,200.822 L625.806,212.884 L619.774,221.3 L606.396,219.418 L602.908,230.396 L614.924,236.58 L614.986,246.932 L603.056,253.272 L606.684,264.206 L620.044,262.14 L626.184,270.48 L620.246,282.62 L629.614,289.334 L639.212,279.818 L649.084,282.946 L651.424,296.258 L662.944,296.182 L665.108,282.836 L674.936,279.578 L684.658,288.968 L693.928,282.14 L687.838,270.066 L693.874,261.652 L707.256,263.536 L710.748,252.562 Z M656.828,255.034 C649.332,255.034 643.266,248.968 643.266,241.48 C643.266,233.992 649.332,227.918 656.828,227.918 C664.316,227.918 670.382,233.992 670.382,241.48 C670.382,248.966 664.316,255.034 656.828,255.034 Z" id="hackumass-logo-top-gear"></path>
                </g>
            </g>
        </g>
    </g>
</svg>