<?xml version="1.0" encoding="utf-8"?>
<!DOCTYPE svg PUBLIC "-//W3C//DTD SVG 1.1//EN" "http://www.w3.org/Graphics/SVG/1.1/DTD/svg11.dtd">
<?xml-stylesheet type="text/css" href="../css/logo.css" ?>
<svg version="1.1" id="Layer_1" xmlns="http://www.w3.org/2000/svg" xmlns:xlink="http://www.w3.org/1999/xlink" x="0px" y="0px"
	 width="414.875px" height="248.76px" viewBox="0 0 414.875 248.76" enable-background="new 0 0 414.875 248.76"
	 xml:space="preserve">
<g id="toolbar">
</g>
<g>
	<polygon class="hackumass-logo-gray-wire" fill="#D1D3D4" points="16.642,135.038 13.356,131.678 51.327,94.55 51.327,87.685 66.801,72.216 66.801,50.549
		72.901,41.529 72.901,8.723 77.6,8.723 77.6,42.968 71.5,51.987 71.5,74.162 56.026,89.633 56.026,96.525 	"/>
</g>
<g>
	<g>
		<polygon class="hackumass-logo-red-wire" fill="#DA4B3F" points="64.192,129.405 59.492,129.405 59.492,91.313 74.274,75.992 83.555,75.992 102.891,53.642
			121.154,53.642 121.154,58.341 105.038,58.341 85.703,80.692 75.191,80.692 64.192,92.091 		"/>
	</g>
</g>
<g>
	<polygon class="hackumass-logo-white-wire" fill="#FFFFFF" points="92.497,160.887 82.277,151.583 82.277,128.431 68.09,116.401 68.09,91.354 75.11,84.163
		93.103,84.163 98.432,78.833 101.756,82.156 95.051,88.86 76.945,88.86 72.788,93.188 72.788,114.226 86.979,126.251
		86.979,149.511 87.749,150.212 95.658,157.414 	"/>
</g>
<g>
	<g>
		<polygon class="hackumass-logo-red-wire" fill="#DA4B3F" points="35.939,93.384 32.727,89.955 59.057,65.296 59.057,16.7 63.756,16.7 63.756,67.334 		"/>
	</g>
</g>
<g>
	<path fill="#A7A9AC" d="M61.843,127.739c-4.133,0-7.491,3.357-7.491,7.498c0,4.138,3.357,7.49,7.491,7.49
		c4.143,0,7.494-3.354,7.494-7.49C69.337,131.097,65.986,127.739,61.843,127.739z"/>
</g>
<g>
	<path fill="#A7A9AC" d="M39.714,135.526c-4.145,0-7.498,3.367-7.498,7.5c0,4.141,3.353,7.492,7.498,7.492
		c4.136,0,7.489-3.353,7.489-7.492C47.204,138.894,43.85,135.526,39.714,135.526z"/>
</g>
<g>
	<circle class="hackumass-logo-white-led" fill="#272727" cx="39.714" cy="143.029" r="3.749"/>
</g>
<g>
	<path fill="#A7A9AC" d="M61.843,157.776c-4.133,0-7.491,3.35-7.491,7.488s3.357,7.5,7.491,7.5c4.143,0,7.494-3.361,7.494-7.5
		C69.337,161.13,65.986,157.776,61.843,157.776z"/>
</g>
<g>
	<g>
		<path class="hackumass-logo-red-led" fill="#DA4B3F" d="M61.843,161.522c-2.068,0-3.748,1.676-3.748,3.742c0,2.073,1.68,3.752,3.748,3.752
			c2.077,0,3.75-1.679,3.75-3.752C65.592,163.198,63.92,161.522,61.843,161.522z"/>
	</g>
</g>
<g>
	<path fill="#A7A9AC" d="M11.25,129.456c-4.148,0-7.498,3.352-7.498,7.488c0,4.14,3.351,7.498,7.498,7.498
		c4.14,0,7.487-3.358,7.487-7.498C18.736,132.808,15.391,129.456,11.25,129.456z"/>
</g>
<g>
	<g>
		<path class="hackumass-logo-red-led" fill="#DA4B3F" d="M11.25,133.192c-2.074,0-3.75,1.683-3.75,3.755c0,2.073,1.676,3.75,3.75,3.75
			c2.059,0,3.744-1.677,3.744-3.75C14.995,134.875,13.31,133.192,11.25,133.192z"/>
	</g>
</g>
<g>
	<path fill="#A7A9AC" d="M105.789,70.259c-4.134,0-7.487,3.354-7.487,7.498c0,4.137,3.349,7.489,7.487,7.489
		c4.149,0,7.498-3.354,7.498-7.489C113.286,73.611,109.937,70.259,105.789,70.259z"/>
</g>
<g>
	<path class="hackumass-logo-white-led" fill="#272727" d="M105.789,74.007c-2.071,0-3.744,1.68-3.744,3.75c0,2.059,1.673,3.747,3.744,3.747
		c2.074,0,3.753-1.688,3.753-3.747C109.538,75.687,107.86,74.007,105.789,74.007z"/>
</g>
<g>
	<path fill="#A7A9AC" d="M127.065,48.506c-4.141,0-7.494,3.352-7.494,7.487c0,4.148,3.353,7.501,7.494,7.501
		c4.147,0,7.496-3.354,7.496-7.501C134.562,51.855,131.212,48.506,127.065,48.506z"/>
</g>
<g>
	<g>
		<path class="hackumass-logo-red-led" fill="#DA4B3F" d="M127.065,52.247c-2.073,0-3.75,1.674-3.75,3.744c0,2.078,1.676,3.747,3.75,3.747
			c2.069,0,3.746-1.669,3.746-3.747C130.811,53.921,129.134,52.247,127.065,52.247z"/>
	</g>
</g>
<g>
	<path fill="#A7A9AC" d="M83.312,92.698c-4.146,0-7.497,3.363-7.497,7.493c0,4.14,3.351,7.499,7.497,7.499
		c4.137,0,7.488-3.359,7.488-7.499C90.799,96.062,87.453,92.698,83.312,92.698z"/>
</g>
<g>
	<path class="hackumass-logo-white-led" fill="#272727" d="M83.312,96.444c-2.072,0-3.75,1.682-3.75,3.75c0,2.074,1.678,3.75,3.75,3.75
		c2.065,0,3.741-1.676,3.741-3.75C87.053,98.126,85.376,96.444,83.312,96.444z"/>
</g>
<g>
	<g>
		<polygon class="hackumass-logo-red-wire" fill="#DA4B3F" points="103.908,102.541 90.799,102.541 90.799,97.844 101.87,97.844 151.138,45.208 154.569,48.418 		"/>
	</g>
</g>
<g>
	<path fill="#A7A9AC" d="M30.577,88.635c-4.144,0-7.5,3.354-7.5,7.491c0,4.134,3.357,7.496,7.5,7.496
		c4.137,0,7.491-3.362,7.491-7.496C38.068,91.989,34.715,88.635,30.577,88.635z"/>
</g>
<g>
	<path fill="#A7A9AC" d="M97.703,155.841c-4.139,0-7.492,3.355-7.492,7.502c0,4.127,3.353,7.487,7.492,7.487
		c4.144,0,7.494-3.36,7.494-7.487C105.199,159.196,101.85,155.841,97.703,155.841z"/>
</g>
<g enable-background="new">
	<path class="hackumass-logo-hack" fill="#DA4B3F" d="M113.189,96.386h11.603v26.338h30.481V96.386h11.604v65.199h-11.604v-28.916h-30.481v28.916h-11.603V96.386
		z"/>
	<path class="hackumass-logo-hack" fill="#DA4B3F" d="M201.687,96.386h10.037l28.087,65.199h-13.262l-6.076-14.918h-28.271l-5.894,14.918h-12.985L201.687,96.386
		z M216.42,136.722L206.383,110.2l-10.222,26.521H216.42z"/>
	<path class="hackumass-logo-hack" fill="#DA4B3F" d="M291.659,111.673c-1.721-2.333-3.961-4.036-6.724-5.111c-2.763-1.073-5.465-1.611-8.104-1.611
		c-3.377,0-6.445,0.614-9.209,1.842c-2.763,1.229-5.143,2.917-7.137,5.064c-1.996,2.15-3.531,4.667-4.604,7.552
		c-1.075,2.887-1.611,6.018-1.611,9.393c0,3.563,0.521,6.815,1.564,9.762c1.043,2.947,2.533,5.479,4.467,7.599
		s4.251,3.761,6.953,4.927c2.699,1.167,5.738,1.75,9.115,1.75c3.5,0,6.6-0.691,9.303-2.072c2.699-1.382,4.88-3.207,6.537-5.479
		l9.302,6.538c-2.888,3.623-6.416,6.432-10.591,8.427c-4.176,1.994-9.057,2.992-14.643,2.992c-5.097,0-9.777-0.846-14.044-2.532
		c-4.269-1.688-7.937-4.052-11.004-7.091c-3.071-3.039-5.465-6.66-7.185-10.866c-1.719-4.205-2.578-8.854-2.578-13.952
		c0-5.217,0.906-9.93,2.718-14.135c1.81-4.205,4.296-7.782,7.459-10.729c3.161-2.947,6.892-5.218,11.188-6.814
		c4.297-1.597,8.963-2.395,13.998-2.395c2.086,0,4.267,0.2,6.537,0.599c2.271,0.399,4.45,1.013,6.538,1.842
		c2.087,0.828,4.052,1.857,5.894,3.085c1.843,1.229,3.408,2.702,4.697,4.42L291.659,111.673z"/>
	<path class="hackumass-logo-hack" fill="#DA4B3F" d="M308.696,96.386h11.602v28.18h0.277l27.258-28.18h15.656l-30.482,30.113l32.508,35.086h-16.301
		l-28.639-32.691h-0.277v32.691h-11.602V96.386L308.696,96.386z"/>
</g>
<path class="hackumass-logo-umass" fill="#FFFFFF" d="M105.485,236.853c-4.912,0-8.933-0.845-12.063-2.531c-3.131-1.688-5.617-3.821-7.459-6.4
	c-1.842-2.578-3.117-5.387-3.822-8.426c-0.707-3.039-1.059-5.908-1.059-8.61v-40.888h6.63v40.15c0,2.641,0.307,5.203,0.921,7.689
	c0.613,2.486,1.611,4.696,2.993,6.63c1.381,1.935,3.208,3.5,5.479,4.696c2.271,1.197,5.065,1.796,8.38,1.796s6.108-0.599,8.38-1.796
	c2.271-1.196,4.098-2.764,5.479-4.696c1.381-1.934,2.379-4.143,2.993-6.63c0.613-2.486,0.921-5.05,0.921-7.689v-40.15h6.63v40.888
	c0,2.702-0.354,5.571-1.059,8.61c-0.706,3.039-1.98,5.848-3.822,8.426c-1.842,2.579-4.344,4.713-7.505,6.4
	C114.34,236.008,110.334,236.853,105.485,236.853z"/>
<path class="hackumass-logo-umass" fill="#FFFFFF" d="M172.618,223.96h0.092l21.825-53.964h10.13v65.198h-6.63V178.56h-0.184l-23.575,56.635h-3.499
	l-23.575-56.635h-0.185v56.635h-6.63v-65.198h10.13L172.618,223.96z"/>
<path class="hackumass-logo-umass" fill="#FFFFFF" d="M215.07,235.194h-7.275l28.18-65.198h6.445l27.994,65.198h-7.365l-7.184-17.129h-33.705L215.07,235.194z
	 M224.647,211.989h28.73l-14.365-34.626L224.647,211.989z"/>
<path class="hackumass-logo-umass" fill="#FFFFFF" d="M305.133,180.494c-1.413-1.964-3.225-3.545-5.434-4.742c-2.211-1.196-4.882-1.796-8.013-1.796
	c-1.597,0-3.224,0.246-4.881,0.736c-1.657,0.492-3.162,1.244-4.513,2.257c-1.352,1.013-2.439,2.286-3.27,3.821
	c-0.829,1.535-1.242,3.347-1.242,5.434c0,2.088,0.396,3.808,1.191,5.156c0.796,1.351,1.854,2.502,3.169,3.453
	c1.315,0.953,2.817,1.735,4.501,2.349c1.684,0.614,3.443,1.229,5.279,1.842c2.266,0.737,4.545,1.536,6.842,2.396
	c2.296,0.859,4.361,1.979,6.199,3.36c1.836,1.382,3.338,3.132,4.5,5.249c1.162,2.118,1.744,4.805,1.744,8.059
	c0,3.255-0.621,6.063-1.861,8.427s-2.854,4.313-4.834,5.848c-1.982,1.535-4.247,2.671-6.795,3.407
	c-2.549,0.736-5.11,1.104-7.689,1.104c-1.966,0-3.93-0.199-5.893-0.599c-1.967-0.399-3.838-0.998-5.618-1.795
	c-1.781-0.798-3.438-1.812-4.974-3.039s-2.887-2.64-4.051-4.235l5.709-4.236c1.411,2.334,3.391,4.281,5.94,5.848
	c2.547,1.564,5.539,2.35,8.978,2.35c1.657,0,3.346-0.262,5.065-0.783c1.719-0.521,3.271-1.319,4.651-2.395
	c1.381-1.074,2.517-2.394,3.406-3.96c0.889-1.565,1.336-3.392,1.336-5.479c0-2.271-0.447-4.158-1.336-5.664
	c-0.891-1.503-2.072-2.763-3.545-3.775c-1.475-1.013-3.162-1.856-5.064-2.532c-1.904-0.675-3.899-1.35-5.986-2.025
	c-2.148-0.676-4.268-1.441-6.354-2.303c-2.088-0.858-3.961-1.979-5.619-3.36c-1.656-1.382-2.991-3.085-4.006-5.111
	c-1.012-2.024-1.52-4.512-1.52-7.459c0-3.131,0.629-5.832,1.889-8.104c1.258-2.27,2.9-4.143,4.926-5.616
	c2.027-1.474,4.268-2.547,6.724-3.224c2.455-0.676,4.881-1.014,7.274-1.014c4.42,0,8.197,0.783,11.328,2.35
	c3.131,1.565,5.492,3.423,7.09,5.57L305.133,180.494z"/>
<path class="hackumass-logo-umass" fill="#FFFFFF" d="M350.624,180.494c-1.412-1.964-3.223-3.545-5.434-4.742c-2.209-1.196-4.881-1.796-8.012-1.796
	c-1.598,0-3.223,0.246-4.881,0.736c-1.658,0.492-3.162,1.244-4.512,2.257c-1.354,1.013-2.441,2.286-3.271,3.821
	c-0.828,1.535-1.242,3.347-1.242,5.434c0,2.088,0.396,3.808,1.191,5.156c0.797,1.351,1.854,2.502,3.17,3.453
	c1.316,0.953,2.816,1.735,4.5,2.349c1.686,0.614,3.443,1.229,5.281,1.842c2.264,0.737,4.543,1.536,6.84,2.396
	s4.363,1.979,6.201,3.36c1.836,1.382,3.336,3.132,4.498,5.249c1.164,2.118,1.746,4.805,1.746,8.059c0,3.255-0.621,6.063-1.861,8.427
	c-1.242,2.364-2.854,4.313-4.836,5.848c-1.98,1.535-4.246,2.671-6.793,3.407c-2.549,0.736-5.111,1.104-7.691,1.104
	c-1.965,0-3.93-0.199-5.893-0.599c-1.965-0.399-3.838-0.998-5.617-1.795c-1.781-0.798-3.439-1.812-4.973-3.039
	c-1.535-1.228-2.887-2.64-4.053-4.235l5.711-4.236c1.41,2.334,3.391,4.281,5.938,5.848c2.547,1.564,5.539,2.35,8.979,2.35
	c1.656,0,3.346-0.262,5.064-0.783c1.719-0.521,3.271-1.319,4.652-2.395c1.381-1.074,2.516-2.394,3.406-3.96
	c0.889-1.565,1.336-3.392,1.336-5.479c0-2.271-0.447-4.158-1.336-5.664c-0.891-1.503-2.072-2.763-3.545-3.775
	c-1.475-1.013-3.162-1.856-5.066-2.532c-1.904-0.675-3.898-1.35-5.986-2.025c-2.148-0.676-4.268-1.441-6.352-2.303
	c-2.088-0.858-3.961-1.979-5.619-3.36c-1.656-1.382-2.992-3.085-4.006-5.111c-1.012-2.024-1.52-4.512-1.52-7.459
	c0-3.131,0.629-5.832,1.889-8.104c1.258-2.27,2.9-4.143,4.926-5.616c2.027-1.474,4.268-2.547,6.723-3.224
	c2.455-0.676,4.881-1.014,7.275-1.014c4.42,0,8.197,0.783,11.328,2.35c3.131,1.565,5.492,3.423,7.09,5.57L350.624,180.494z"/>
<polygon class="hackumass-logo-white-wire" fill="#FFFFFF" points="87.019,126.276 81.082,126.276 81.082,169.996 87.712,169.996 87.712,126.794 "/>
<g>
	<path fill="#D1D3D4" d="M161.65,54.117c-4.133,0-7.49,3.35-7.49,7.488s3.357,7.498,7.49,7.498c4.143,0,7.494-3.359,7.494-7.498
		C169.144,57.471,165.792,54.117,161.65,54.117z"/>
</g>
<g>
	<path fill="#D1D3D4" d="M147.394,68.374c-4.133,0-7.491,3.349-7.491,7.487c0,4.139,3.357,7.498,7.491,7.498
		c4.143,0,7.494-3.359,7.494-7.498C154.888,71.727,151.537,68.374,147.394,68.374z"/>
</g>
<path id="hackumass-logo-bottom-gear" fill="#939598" d="M381.243,188.877l3.548-0.646l0.088-3.795l-3.513-0.809l-1.157-2.992l2.054-2.96l-2.617-2.746l-3.059,1.912
	l-2.934-1.3l-0.646-3.545l-3.793-0.087l-0.812,3.51l-2.991,1.158l-2.962-2.053l-2.745,2.62l1.91,3.056l-1.297,2.935l-3.545,0.645
	l-0.09,3.792l3.511,0.811l1.159,2.993l-2.052,2.959l2.621,2.746l3.055-1.909l2.933,1.297l0.646,3.548l3.792,0.087l0.811-3.515
	l2.99-1.153l2.963,2.051l2.745-2.62l-1.908-3.058L381.243,188.877z M368.441,191.289c-2.901-1.249-4.243-4.613-2.996-7.512
	c1.248-2.902,4.61-4.241,7.514-2.993c2.897,1.247,4.238,4.61,2.991,7.511C374.705,191.194,371.34,192.535,368.441,191.289z"/>
<path id="hackumass-logo-middle-gear" fill="#808285" d="M405.249,164.925l3.854-2.344l-1.598-4.474l-4.47,0.628l-2.688-2.973l1.068-4.385l-4.292-2.031l-2.716,3.602
	l-4.006-0.2l-2.345-3.853l-4.47,1.599l0.624,4.466l-2.973,2.691l-4.383-1.069l-2.032,4.292l3.604,2.716l-0.199,4.007l-3.852,2.341
	l1.594,4.474l4.467-0.626l2.691,2.978l-1.07,4.375l4.293,2.034l2.715-3.601l4.008,0.2l2.344,3.852l4.474-1.598l-0.631-4.467
	l2.976-2.688l4.385,1.066l2.032-4.292l-3.604-2.718L405.249,164.925z M391.425,172.237c-3.261-0.131-5.796-2.878-5.673-6.136
	c0.129-3.26,2.88-5.797,6.142-5.67c3.255,0.13,5.798,2.877,5.661,6.14C397.428,169.826,394.684,172.364,391.425,172.237z"/>
<path id="hackumass-logo-top-gear" fill="#A7A9AC" d="M403.628,138.768l1.746-5.487l-6.012-3.089l-0.031-5.179l5.969-3.17l-1.816-5.465l-6.678,1.032l-3.07-4.169
	l2.965-6.074l-4.684-3.354l-4.799,4.761l-4.934-1.569l-1.168-6.655l-5.766,0.039l-1.08,6.67l-4.914,1.633l-4.857-4.698l-4.639,3.417
	l3.043,6.031l-3.016,4.208l-6.689-0.941l-1.744,5.489l6.008,3.092l0.031,5.176l-5.965,3.17l1.814,5.467l6.68-1.033l3.07,4.17
	l-2.969,6.07l4.684,3.357l4.799-4.758l4.936,1.564l1.17,6.656l5.76-0.038l1.082-6.673l4.914-1.629l4.861,4.695l4.635-3.414
	l-3.045-6.037l3.018-4.207L403.628,138.768z M378.414,134.517c-3.748,0-6.781-3.033-6.781-6.777c0-3.744,3.033-6.781,6.781-6.781
	c3.744,0,6.777,3.037,6.777,6.781C385.191,131.483,382.158,134.517,378.414,134.517z"/>
</svg>
