<?xml version="1.0" encoding="UTF-8" standalone="no"?>
<?xml-stylesheet type="text/css" href="../css/logo.css" ?>
<svg width="415px" height="249px" viewBox="0 0 415 249" version="1.1" xmlns="http://www.w3.org/2000/svg" xmlns:xlink="http://www.w3.org/1999/xlink" xmlns:sketch="http://www.bohemiancoding.com/sketch/ns">
    <!-- Generator: Sketch 3.4.4 (17249) - http://www.bohemiancoding.com/sketch -->
    <title>logo copy</title>
    <desc>Created with Sketch.</desc>
    <defs></defs>
    <g id="Page-1" stroke="none" stroke-width="1" fill="none" fill-rule="evenodd" sketch:type="MSPage">
        <g id="logo" sketch:type="MSLayerGroup">
            <g id="toolbar"></g>
            <path d="M16.642,135.038 L13.356,131.678 L51.327,94.55 L51.327,87.685 L66.801,72.216 L66.801,50.549 L72.901,41.529 L72.901,8.723 L77.6,8.723 L77.6,42.968 L71.5,51.987 L71.5,74.162 L56.026,89.633 L56.026,96.525 L16.642,135.038 Z" id="Shape" fill="#FFFFFF" sketch:type="MSShapeGroup"></path>
            <path d="M64.192,129.405 L59.492,129.405 L59.492,91.313 L74.274,75.992 L83.555,75.992 L102.891,53.642 L121.154,53.642 L121.154,58.341 L105.038,58.341 L85.703,80.692 L75.191,80.692 L64.192,92.091 L64.192,129.405 Z" id="Shape" fill="#FFFFFF" sketch:type="MSShapeGroup"></path>
            <path d="M92.497,160.887 L82.277,151.583 L82.277,128.431 L68.09,116.401 L68.09,91.354 L75.11,84.163 L93.103,84.163 L98.432,78.833 L101.756,82.156 L95.051,88.86 L76.945,88.86 L72.788,93.188 L72.788,114.226 L86.979,126.251 L86.979,149.511 L87.749,150.212 L95.658,157.414 L92.497,160.887 Z" id="Shape" fill="#FFFFFF" sketch:type="MSShapeGroup"></path>
            <path d="M35.939,93.384 L32.727,89.955 L59.057,65.296 L59.057,16.7 L63.756,16.7 L63.756,67.334 L35.939,93.384 Z" id="Shape" fill="#FFFFFF" sketch:type="MSShapeGroup"></path>
            <path d="M61.843,127.739 C57.71,127.739 54.352,131.096 54.352,135.237 C54.352,139.375 57.709,142.727 61.843,142.727 C65.986,142.727 69.337,139.373 69.337,135.237 C69.337,131.097 65.986,127.739 61.843,127.739 L61.843,127.739 Z" id="Shape" fill="#FFFFFF" sketch:type="MSShapeGroup"></path>
            <path d="M39.714,135.526 C35.569,135.526 32.216,138.893 32.216,143.026 C32.216,147.167 35.569,150.518 39.714,150.518 C43.85,150.518 47.203,147.165 47.203,143.026 C47.204,138.894 43.85,135.526 39.714,135.526 L39.714,135.526 Z" id="Shape" fill="#FFFFFF" sketch:type="MSShapeGroup"></path>
            <circle id="Oval" fill="#FFFFFF" sketch:type="MSShapeGroup" cx="39.714" cy="143.029" r="3.749"></circle>
            <path d="M61.843,157.776 C57.71,157.776 54.352,161.126 54.352,165.264 C54.352,169.402 57.709,172.764 61.843,172.764 C65.986,172.764 69.337,169.403 69.337,165.264 C69.337,161.13 65.986,157.776 61.843,157.776 L61.843,157.776 Z" id="Shape" fill="#FFFFFF" sketch:type="MSShapeGroup"></path>
            <path d="M61.843,161.522 C59.775,161.522 58.095,163.198 58.095,165.264 C58.095,167.337 59.775,169.016 61.843,169.016 C63.92,169.016 65.593,167.337 65.593,165.264 C65.592,163.198 63.92,161.522 61.843,161.522 L61.843,161.522 Z" id="Shape" fill="#FFFFFF" sketch:type="MSShapeGroup"></path>
            <path d="M11.25,129.456 C7.102,129.456 3.752,132.808 3.752,136.944 C3.752,141.084 7.103,144.442 11.25,144.442 C15.39,144.442 18.737,141.084 18.737,136.944 C18.736,132.808 15.391,129.456 11.25,129.456 L11.25,129.456 Z" id="Shape" fill="#FFFFFF" sketch:type="MSShapeGroup"></path>
            <path d="M11.25,133.192 C9.176,133.192 7.5,134.875 7.5,136.947 C7.5,139.02 9.176,140.697 11.25,140.697 C13.309,140.697 14.994,139.02 14.994,136.947 C14.995,134.875 13.31,133.192 11.25,133.192 L11.25,133.192 Z" id="Shape" fill="#FFFFFF" sketch:type="MSShapeGroup"></path>
            <path d="M105.789,70.259 C101.655,70.259 98.302,73.613 98.302,77.757 C98.302,81.894 101.651,85.246 105.789,85.246 C109.938,85.246 113.287,81.892 113.287,77.757 C113.286,73.611 109.937,70.259 105.789,70.259 L105.789,70.259 Z" id="Shape" fill="#FFFFFF" sketch:type="MSShapeGroup"></path>
            <path d="M105.789,74.007 C103.718,74.007 102.045,75.687 102.045,77.757 C102.045,79.816 103.718,81.504 105.789,81.504 C107.863,81.504 109.542,79.816 109.542,77.757 C109.538,75.687 107.86,74.007 105.789,74.007 L105.789,74.007 Z" id="Shape" fill="#FFFFFF" sketch:type="MSShapeGroup"></path>
            <path d="M127.065,48.506 C122.924,48.506 119.571,51.858 119.571,55.993 C119.571,60.141 122.924,63.494 127.065,63.494 C131.212,63.494 134.561,60.14 134.561,55.993 C134.562,51.855 131.212,48.506 127.065,48.506 L127.065,48.506 Z" id="Shape" fill="#FFFFFF" sketch:type="MSShapeGroup"></path>
            <path d="M127.065,52.247 C124.992,52.247 123.315,53.921 123.315,55.991 C123.315,58.069 124.991,59.738 127.065,59.738 C129.134,59.738 130.811,58.069 130.811,55.991 C130.811,53.921 129.134,52.247 127.065,52.247 L127.065,52.247 Z" id="Shape" fill="#FFFFFF" sketch:type="MSShapeGroup"></path>
            <path d="M83.312,92.698 C79.166,92.698 75.815,96.061 75.815,100.191 C75.815,104.331 79.166,107.69 83.312,107.69 C87.449,107.69 90.8,104.331 90.8,100.191 C90.799,96.062 87.453,92.698 83.312,92.698 L83.312,92.698 Z" id="Shape" fill="#FFFFFF" sketch:type="MSShapeGroup"></path>
            <path d="M83.312,96.444 C81.24,96.444 79.562,98.126 79.562,100.194 C79.562,102.268 81.24,103.944 83.312,103.944 C85.377,103.944 87.053,102.268 87.053,100.194 C87.053,98.126 85.376,96.444 83.312,96.444 L83.312,96.444 Z" id="Shape" fill="#FFFFFF" sketch:type="MSShapeGroup"></path>
            <path d="M103.908,102.541 L90.799,102.541 L90.799,97.844 L101.87,97.844 L151.138,45.208 L154.569,48.418 L103.908,102.541 Z" id="Shape" fill="#FFFFFF" sketch:type="MSShapeGroup"></path>
            <path d="M30.577,88.635 C26.433,88.635 23.077,91.989 23.077,96.126 C23.077,100.26 26.434,103.622 30.577,103.622 C34.714,103.622 38.068,100.26 38.068,96.126 C38.068,91.989 34.715,88.635 30.577,88.635 L30.577,88.635 Z" id="Shape" fill="#FFFFFF" sketch:type="MSShapeGroup"></path>
            <path d="M97.703,155.841 C93.564,155.841 90.211,159.196 90.211,163.343 C90.211,167.47 93.564,170.83 97.703,170.83 C101.847,170.83 105.197,167.47 105.197,163.343 C105.199,159.196 101.85,155.841 97.703,155.841 L97.703,155.841 Z" id="Shape" fill="#FFFFFF" sketch:type="MSShapeGroup"></path>
            <g id="Group" transform="translate(113.000000, 94.000000)" fill="#FFFFFF" sketch:type="MSShapeGroup">
                <path d="M0.189,2.386 L11.792,2.386 L11.792,28.724 L42.273,28.724 L42.273,2.386 L53.877,2.386 L53.877,67.585 L42.273,67.585 L42.273,38.669 L11.792,38.669 L11.792,67.585 L0.189,67.585 L0.189,2.386 L0.189,2.386 Z" id="Shape"></path>
                <path d="M88.687,2.386 L98.724,2.386 L126.811,67.585 L113.549,67.585 L107.473,52.667 L79.202,52.667 L73.308,67.585 L60.323,67.585 L88.687,2.386 L88.687,2.386 Z M103.42,42.722 L93.383,16.2 L83.161,42.721 L103.42,42.721 L103.42,42.722 Z" id="Shape"></path>
                <path d="M178.659,17.673 C176.938,15.34 174.698,13.637 171.935,12.562 C169.172,11.489 166.47,10.951 163.831,10.951 C160.454,10.951 157.386,11.565 154.622,12.793 C151.859,14.022 149.479,15.71 147.485,17.857 C145.489,20.007 143.954,22.524 142.881,25.409 C141.806,28.296 141.27,31.427 141.27,34.802 C141.27,38.365 141.791,41.617 142.834,44.564 C143.877,47.511 145.367,50.043 147.301,52.163 C149.235,54.283 151.552,55.924 154.254,57.09 C156.953,58.257 159.992,58.84 163.369,58.84 C166.869,58.84 169.969,58.149 172.672,56.768 C175.371,55.386 177.552,53.561 179.209,51.289 L188.511,57.827 C185.623,61.45 182.095,64.259 177.92,66.254 C173.744,68.248 168.863,69.246 163.277,69.246 C158.18,69.246 153.5,68.4 149.233,66.714 C144.964,65.026 141.296,62.662 138.229,59.623 C135.158,56.584 132.764,52.963 131.044,48.757 C129.325,44.552 128.466,39.903 128.466,34.805 C128.466,29.588 129.372,24.875 131.184,20.67 C132.994,16.465 135.48,12.888 138.643,9.941 C141.804,6.994 145.535,4.723 149.831,3.127 C154.128,1.53 158.794,0.732 163.829,0.732 C165.915,0.732 168.096,0.932 170.366,1.331 C172.637,1.73 174.816,2.344 176.904,3.173 C178.991,4.001 180.956,5.03 182.798,6.258 C184.641,7.487 186.206,8.96 187.495,10.678 L178.659,17.673 L178.659,17.673 Z" id="Shape"></path>
                <path d="M195.696,2.386 L207.298,2.386 L207.298,30.566 L207.575,30.566 L234.833,2.386 L250.489,2.386 L220.007,32.499 L252.515,67.585 L236.214,67.585 L207.575,34.894 L207.298,34.894 L207.298,67.585 L195.696,67.585 L195.696,2.386 L195.696,2.386 L195.696,2.386 Z" id="Shape"></path>
            </g>
            <path d="M105.485,236.853 C100.573,236.853 96.552,236.008 93.422,234.322 C90.291,232.634 87.805,230.501 85.963,227.922 C84.121,225.344 82.846,222.535 82.141,219.496 C81.434,216.457 81.082,213.588 81.082,210.886 L81.082,169.998 L87.712,169.998 L87.712,210.148 C87.712,212.789 88.019,215.351 88.633,217.837 C89.246,220.323 90.244,222.533 91.626,224.467 C93.007,226.402 94.834,227.967 97.105,229.163 C99.376,230.36 102.17,230.959 105.485,230.959 C108.8,230.959 111.593,230.36 113.865,229.163 C116.136,227.967 117.963,226.399 119.344,224.467 C120.725,222.533 121.723,220.324 122.337,217.837 C122.95,215.351 123.258,212.787 123.258,210.148 L123.258,169.998 L129.888,169.998 L129.888,210.886 C129.888,213.588 129.534,216.457 128.829,219.496 C128.123,222.535 126.849,225.344 125.007,227.922 C123.165,230.501 120.663,232.635 117.502,234.322 C114.34,236.008 110.334,236.853 105.485,236.853 L105.485,236.853 Z" id="Shape" fill="#FFFFFF" sketch:type="MSShapeGroup"></path>
            <path d="M172.618,223.96 L172.71,223.96 L194.535,169.996 L204.665,169.996 L204.665,235.194 L198.035,235.194 L198.035,178.56 L197.851,178.56 L174.276,235.195 L170.777,235.195 L147.202,178.56 L147.017,178.56 L147.017,235.195 L140.387,235.195 L140.387,169.997 L150.517,169.997 L172.618,223.96 L172.618,223.96 Z" id="Shape" fill="#FFFFFF" sketch:type="MSShapeGroup"></path>
            <path d="M215.07,235.194 L207.795,235.194 L235.975,169.996 L242.42,169.996 L270.414,235.194 L263.049,235.194 L255.865,218.065 L222.16,218.065 L215.07,235.194 L215.07,235.194 Z M224.647,211.989 L253.377,211.989 L239.012,177.363 L224.647,211.989 L224.647,211.989 Z" id="Shape" fill="#FFFFFF" sketch:type="MSShapeGroup"></path>
            <path d="M305.133,180.494 C303.72,178.53 301.908,176.949 299.699,175.752 C297.488,174.556 294.817,173.956 291.686,173.956 C290.089,173.956 288.462,174.202 286.805,174.692 C285.148,175.184 283.643,175.936 282.292,176.949 C280.94,177.962 279.853,179.235 279.022,180.77 C278.193,182.305 277.78,184.117 277.78,186.204 C277.78,188.292 278.176,190.012 278.971,191.36 C279.767,192.711 280.825,193.862 282.14,194.813 C283.455,195.766 284.957,196.548 286.641,197.162 C288.325,197.776 290.084,198.391 291.92,199.004 C294.186,199.741 296.465,200.54 298.762,201.4 C301.058,202.259 303.123,203.379 304.961,204.76 C306.797,206.142 308.299,207.892 309.461,210.009 C310.623,212.127 311.205,214.814 311.205,218.068 C311.205,221.323 310.584,224.131 309.344,226.495 C308.104,228.859 306.49,230.808 304.51,232.343 C302.528,233.878 300.263,235.014 297.715,235.75 C295.166,236.486 292.605,236.854 290.026,236.854 C288.06,236.854 286.096,236.655 284.133,236.255 C282.166,235.856 280.295,235.257 278.515,234.46 C276.734,233.662 275.077,232.648 273.541,231.421 C272.005,230.194 270.654,228.781 269.49,227.186 L275.199,222.95 C276.61,225.284 278.59,227.231 281.139,228.798 C283.686,230.362 286.678,231.148 290.117,231.148 C291.774,231.148 293.463,230.886 295.182,230.365 C296.901,229.844 298.453,229.046 299.833,227.97 C301.214,226.896 302.35,225.576 303.239,224.01 C304.128,222.445 304.575,220.618 304.575,218.531 C304.575,216.26 304.128,214.373 303.239,212.867 C302.348,211.364 301.167,210.104 299.694,209.092 C298.219,208.079 296.532,207.236 294.63,206.56 C292.726,205.885 290.731,205.21 288.644,204.535 C286.496,203.859 284.376,203.094 282.29,202.232 C280.202,201.374 278.329,200.253 276.671,198.872 C275.015,197.49 273.68,195.787 272.665,193.761 C271.653,191.737 271.145,189.249 271.145,186.302 C271.145,183.171 271.774,180.47 273.034,178.198 C274.292,175.928 275.934,174.055 277.96,172.582 C279.987,171.108 282.228,170.035 284.684,169.358 C287.139,168.682 289.565,168.344 291.958,168.344 C296.378,168.344 300.155,169.127 303.286,170.694 C306.417,172.259 308.778,174.117 310.376,176.264 L305.133,180.494 L305.133,180.494 Z" id="Shape" fill="#FFFFFF" sketch:type="MSShapeGroup"></path>
            <path d="M350.624,180.494 C349.212,178.53 347.401,176.949 345.19,175.752 C342.981,174.556 340.309,173.956 337.178,173.956 C335.58,173.956 333.955,174.202 332.297,174.692 C330.639,175.184 329.135,175.936 327.785,176.949 C326.431,177.962 325.344,179.235 324.514,180.77 C323.686,182.305 323.272,184.117 323.272,186.204 C323.272,188.292 323.668,190.012 324.463,191.36 C325.26,192.711 326.317,193.862 327.633,194.813 C328.949,195.766 330.449,196.548 332.133,197.162 C333.819,197.776 335.576,198.391 337.414,199.004 C339.678,199.741 341.957,200.54 344.254,201.4 C346.551,202.26 348.617,203.379 350.455,204.76 C352.291,206.142 353.791,207.892 354.953,210.009 C356.117,212.127 356.699,214.814 356.699,218.068 C356.699,221.323 356.078,224.131 354.838,226.495 C353.596,228.859 351.984,230.808 350.002,232.343 C348.022,233.878 345.756,235.014 343.209,235.75 C340.66,236.486 338.098,236.854 335.518,236.854 C333.553,236.854 331.588,236.655 329.625,236.255 C327.66,235.856 325.787,235.257 324.008,234.46 C322.227,233.662 320.569,232.648 319.035,231.421 C317.5,230.193 316.148,228.781 314.982,227.186 L320.693,222.95 C322.103,225.284 324.084,227.231 326.631,228.798 C329.178,230.362 332.17,231.148 335.61,231.148 C337.266,231.148 338.956,230.886 340.674,230.365 C342.393,229.844 343.945,229.046 345.326,227.97 C346.707,226.896 347.842,225.576 348.732,224.01 C349.621,222.445 350.068,220.618 350.068,218.531 C350.068,216.26 349.621,214.373 348.732,212.867 C347.841,211.364 346.66,210.104 345.187,209.092 C343.712,208.079 342.025,207.236 340.121,206.56 C338.217,205.885 336.223,205.21 334.135,204.535 C331.987,203.859 329.867,203.094 327.783,202.232 C325.695,201.374 323.822,200.253 322.164,198.872 C320.508,197.49 319.172,195.787 318.158,193.761 C317.146,191.737 316.638,189.249 316.638,186.302 C316.638,183.171 317.267,180.47 318.527,178.198 C319.785,175.928 321.427,174.055 323.453,172.582 C325.48,171.108 327.721,170.035 330.176,169.358 C332.631,168.682 335.057,168.344 337.451,168.344 C341.871,168.344 345.648,169.127 348.779,170.694 C351.91,172.259 354.271,174.117 355.869,176.264 L350.624,180.494 L350.624,180.494 Z" id="Shape" fill="#FFFFFF" sketch:type="MSShapeGroup"></path>
            <path d="M87.019,126.276 L81.082,126.276 L81.082,169.996 L87.712,169.996 L87.712,126.794 L87.019,126.276 Z" id="Shape" fill="#FFFFFF" sketch:type="MSShapeGroup"></path>
            <path d="M161.65,54.117 C157.517,54.117 154.16,57.467 154.16,61.605 C154.16,65.743 157.517,69.103 161.65,69.103 C165.793,69.103 169.144,65.744 169.144,61.605 C169.144,57.471 165.792,54.117 161.65,54.117 L161.65,54.117 Z" id="Shape" fill="#FFFFFF" sketch:type="MSShapeGroup"></path>
            <path d="M147.394,68.374 C143.261,68.374 139.903,71.723 139.903,75.861 C139.903,80 143.26,83.359 147.394,83.359 C151.537,83.359 154.888,80 154.888,75.861 C154.888,71.727 151.537,68.374 147.394,68.374 L147.394,68.374 Z" id="Shape" fill="#FFFFFF" sketch:type="MSShapeGroup"></path>
            <path d="M381.243,188.877 L384.791,188.231 L384.879,184.436 L381.366,183.627 L380.209,180.635 L382.263,177.675 L379.646,174.929 L376.587,176.841 L373.653,175.541 L373.007,171.996 L369.214,171.909 L368.402,175.419 L365.411,176.577 L362.449,174.524 L359.704,177.144 L361.614,180.2 L360.317,183.135 L356.772,183.78 L356.682,187.572 L360.193,188.383 L361.352,191.376 L359.3,194.335 L361.921,197.081 L364.976,195.172 L367.909,196.469 L368.555,200.017 L372.347,200.104 L373.158,196.589 L376.148,195.436 L379.111,197.487 L381.856,194.867 L379.948,191.809 L381.243,188.877 L381.243,188.877 Z M368.441,191.289 C365.54,190.04 364.198,186.676 365.445,183.777 C366.693,180.875 370.055,179.536 372.959,180.784 C375.856,182.031 377.197,185.394 375.95,188.295 C374.705,191.194 371.34,192.535 368.441,191.289 L368.441,191.289 Z" id="hackumass-logo-bottom-gear" fill="#FFFFFF" sketch:type="MSShapeGroup"></path>
            <path d="M405.249,164.925 L409.103,162.581 L407.505,158.107 L403.035,158.735 L400.347,155.762 L401.415,151.377 L397.123,149.346 L394.407,152.948 L390.401,152.748 L388.056,148.895 L383.586,150.494 L384.21,154.96 L381.237,157.651 L376.854,156.582 L374.822,160.874 L378.426,163.59 L378.227,167.597 L374.375,169.938 L375.969,174.412 L380.436,173.786 L383.127,176.764 L382.057,181.139 L386.35,183.173 L389.065,179.572 L393.073,179.772 L395.417,183.624 L399.891,182.026 L399.26,177.559 L402.236,174.871 L406.621,175.937 L408.653,171.645 L405.049,168.927 L405.249,164.925 L405.249,164.925 Z M391.425,172.237 C388.164,172.106 385.629,169.359 385.752,166.101 C385.881,162.841 388.632,160.304 391.894,160.431 C395.149,160.561 397.692,163.308 397.555,166.571 C397.428,169.826 394.684,172.364 391.425,172.237 L391.425,172.237 Z" id="hackumass-logo-middle-gear" fill="#FFFFFF" sketch:type="MSShapeGroup"></path>
            <path d="M403.628,138.768 L405.374,133.281 L399.362,130.192 L399.331,125.013 L405.3,121.843 L403.484,116.378 L396.806,117.41 L393.736,113.241 L396.701,107.167 L392.017,103.813 L387.218,108.574 L382.284,107.005 L381.116,100.35 L375.35,100.389 L374.27,107.059 L369.356,108.692 L364.499,103.994 L359.86,107.411 L362.903,113.442 L359.887,117.65 L353.198,116.709 L351.454,122.198 L357.462,125.29 L357.493,130.466 L351.528,133.636 L353.342,139.103 L360.022,138.07 L363.092,142.24 L360.123,148.31 L364.807,151.667 L369.606,146.909 L374.542,148.473 L375.712,155.129 L381.472,155.091 L382.554,148.418 L387.468,146.789 L392.329,151.484 L396.964,148.07 L393.919,142.033 L396.937,137.826 L403.628,138.768 L403.628,138.768 Z M378.414,134.517 C374.666,134.517 371.633,131.484 371.633,127.74 C371.633,123.996 374.666,120.959 378.414,120.959 C382.158,120.959 385.191,123.996 385.191,127.74 C385.191,131.483 382.158,134.517 378.414,134.517 L378.414,134.517 Z" id="hackumass-logo-top-gear" fill="#FFFFFF" sketch:type="MSShapeGroup"></path>
        </g>
    </g>
</svg>
